Upgrade_Try-Hairline.ufo
<glyph name="dollar" format="2">
  <advance width="492"/>
  <unicode hex="0024"/>
  <outline>
    <contour>
      <point x="256" y="344" type="line"/>
      <point x="263" y="342" type="line"/>
      <point x="263" y="748" type="line"/>
      <point x="256" y="748" type="line"/>
    </contour>
    <contour>
      <point x="256" y="-90" type="line"/>
      <point x="263" y="-90" type="line"/>
      <point x="263" y="340" type="line"/>
      <point x="256" y="342" type="line"/>
    </contour>
    <component base="S" xOffset="-6"/>
  </outline>
</glyph>
<glyph name="ampersand" format="2">
  <advance width="563"/>
  <unicode hex="0026"/>
  <outline>
    <contour>
      <point x="239" y="-8" type="curve" smooth="yes"/>
      <point x="312" y="-8"/>
      <point x="387" y="28"/>
      <point x="429" y="84" type="curve"/>
      <point x="432" y="88" type="line"/>
      <point x="474" y="143"/>
      <point x="490" y="215"/>
      <point x="490" y="345" type="curve"/>
      <point x="483" y="345" type="line"/>
      <point x="483" y="218"/>
      <point x="467" y="147"/>
      <point x="427" y="93" type="curve"/>
      <point x="424" y="89" type="line"/>
      <point x="383" y="34"/>
      <point x="310" y="-1"/>
      <point x="239" y="-1" type="curve" smooth="yes"/>
      <point x="119" y="-1"/>
      <point x="40" y="72"/>
      <point x="40" y="181" type="curve" smooth="yes"/>
      <point x="40" y="258"/>
      <point x="87" y="329"/>
      <point x="178" y="367" type="curve"/>
      <point x="173" y="373" type="line"/>
      <point x="88" y="336"/>
      <point x="32" y="267"/>
      <point x="32" y="181" type="curve" smooth="yes"/>
      <point x="32" y="68"/>
      <point x="114" y="-8"/>
    </contour>
    <contour>
      <point x="500" y="0" type="line"/>
      <point x="511" y="0" type="line"/>
      <point x="169" y="384" type="line" smooth="yes"/>
      <point x="133" y="424"/>
      <point x="112" y="463"/>
      <point x="112" y="512" type="curve" smooth="yes"/>
      <point x="112" y="594"/>
      <point x="173" y="659"/>
      <point x="266" y="659" type="curve" smooth="yes"/>
      <point x="325" y="659"/>
      <point x="383" y="627"/>
      <point x="424" y="580" type="curve"/>
      <point x="424" y="590" type="line"/>
      <point x="381" y="640"/>
      <point x="322" y="666"/>
      <point x="266" y="666" type="curve" smooth="yes"/>
      <point x="168" y="666"/>
      <point x="104" y="597"/>
      <point x="104" y="512" type="curve" smooth="yes"/>
      <point x="104" y="464"/>
      <point x="124" y="422"/>
      <point x="163" y="379" type="curve" smooth="yes"/>
    </contour>
  </outline>
</glyph>
<glyph name="parenleft" format="2">
  <advance width="298"/>
  <unicode hex="0028"/>
  <outline>
    <contour>
      <point x="249" y="-220" type="curve"/>
      <point x="258" y="-220" type="line"/>
      <point x="145" y="-79"/>
      <point x="88" y="81"/>
      <point x="88" y="252" type="curve" smooth="yes"/>
      <point x="88" y="422"/>
      <point x="145" y="583"/>
      <point x="258" y="724" type="curve"/>
      <point x="249" y="724" type="line"/>
      <point x="137" y="583"/>
      <point x="80" y="423"/>
      <point x="80" y="252" type="curve" smooth="yes"/>
      <point x="80" y="82"/>
      <point x="137" y="-79"/>
    </contour>
  </outline>
</glyph>
<glyph name="parenright" format="2">
  <advance width="299"/>
  <unicode hex="0029"/>
  <outline>
    <contour>
      <point x="40" y="-220" type="curve"/>
      <point x="49" y="-220" type="line"/>
      <point x="161" y="-79"/>
      <point x="219" y="82"/>
      <point x="219" y="252" type="curve" smooth="yes"/>
      <point x="219" y="423"/>
      <point x="161" y="583"/>
      <point x="49" y="724" type="curve"/>
      <point x="40" y="724" type="line"/>
      <point x="153" y="583"/>
      <point x="211" y="422"/>
      <point x="211" y="252" type="curve" smooth="yes"/>
      <point x="211" y="81"/>
      <point x="153" y="-79"/>
    </contour>
  </outline>
</glyph>
<glyph name="zero" format="2">
  <advance width="542"/>
  <unicode hex="0030"/>
  <outline>
    <contour>
      <point x="271" y="-8" type="curve" smooth="yes"/>
      <point x="414" y="-8"/>
      <point x="488" y="126"/>
      <point x="488" y="327" type="curve" smooth="yes"/>
      <point x="488" y="530"/>
      <point x="414" y="666"/>
      <point x="271" y="666" type="curve" smooth="yes"/>
      <point x="128" y="666"/>
      <point x="54" y="530"/>
      <point x="54" y="327" type="curve" smooth="yes"/>
      <point x="54" y="126"/>
      <point x="128" y="-8"/>
    </contour>
    <contour>
      <point x="271" y="-1" type="curve" smooth="yes"/>
      <point x="146" y="-1"/>
      <point x="62" y="111"/>
      <point x="62" y="327" type="curve" smooth="yes"/>
      <point x="62" y="546"/>
      <point x="146" y="659"/>
      <point x="271" y="659" type="curve" smooth="yes"/>
      <point x="396" y="659"/>
      <point x="480" y="546"/>
      <point x="480" y="327" type="curve" smooth="yes"/>
      <point x="480" y="111"/>
      <point x="396" y="-1"/>
    </contour>
  </outline>
</glyph>
<glyph name="one" format="2">
  <advance width="345"/>
  <unicode hex="0031"/>
  <outline>
    <contour>
      <point x="189" y="0" type="line"/>
      <point x="197" y="0" type="line"/>
      <point x="197" y="673" type="line"/>
      <point x="48" y="641" type="line"/>
      <point x="48" y="634" type="line"/>
      <point x="189" y="664" type="line"/>
    </contour>
  </outline>
</glyph>
<glyph name="two" format="2">
  <advance width="490"/>
  <unicode hex="0032"/>
  <outline>
    <contour>
      <point x="54" y="0" type="line"/>
      <point x="436" y="0" type="line"/>
      <point x="436" y="8" type="line"/>
      <point x="61" y="8" type="line"/>
      <point x="60" y="3" type="line"/>
      <point x="197" y="134" type="line" smooth="yes"/>
      <point x="375" y="303"/>
      <point x="425" y="380"/>
      <point x="425" y="475" type="curve" smooth="yes"/>
      <point x="425" y="592"/>
      <point x="350" y="666"/>
      <point x="241" y="666" type="curve" smooth="yes"/>
      <point x="179" y="666"/>
      <point x="111" y="642"/>
      <point x="65" y="608" type="curve"/>
      <point x="65" y="599" type="line"/>
      <point x="114" y="635"/>
      <point x="181" y="659"/>
      <point x="241" y="659" type="curve" smooth="yes"/>
      <point x="345" y="659"/>
      <point x="417" y="588"/>
      <point x="417" y="475" type="curve" smooth="yes"/>
      <point x="417" y="382"/>
      <point x="367" y="307"/>
      <point x="192" y="140" type="curve" smooth="yes"/>
      <point x="54" y="8" type="line"/>
    </contour>
  </outline>
</glyph>
<glyph name="three" format="2">
  <advance width="493"/>
  <unicode hex="0033"/>
  <outline>
    <contour>
      <point x="248" y="-8" type="curve" smooth="yes"/>
      <point x="361" y="-8"/>
      <point x="437" y="61"/>
      <point x="437" y="165" type="curve" smooth="yes"/>
      <point x="437" y="271"/>
      <point x="351" y="342"/>
      <point x="221" y="342" type="curve"/>
      <point x="221" y="337" type="line"/>
      <point x="347" y="337"/>
      <point x="431" y="405"/>
      <point x="431" y="506" type="curve" smooth="yes"/>
      <point x="431" y="602"/>
      <point x="363" y="666"/>
      <point x="261" y="666" type="curve" smooth="yes"/>
      <point x="199" y="666"/>
      <point x="134" y="642"/>
      <point x="92" y="608" type="curve"/>
      <point x="92" y="599" type="line"/>
      <point x="137" y="636"/>
      <point x="201" y="659"/>
      <point x="261" y="659" type="curve" smooth="yes"/>
      <point x="358" y="659"/>
      <point x="423" y="598"/>
      <point x="423" y="506" type="curve" smooth="yes"/>
      <point x="423" y="408"/>
      <point x="342" y="343"/>
      <point x="221" y="343" type="curve" smooth="yes"/>
      <point x="195" y="343" type="line"/>
      <point x="195" y="336" type="line"/>
      <point x="221" y="336" type="line" smooth="yes"/>
      <point x="346" y="336"/>
      <point x="429" y="267"/>
      <point x="429" y="165" type="curve" smooth="yes"/>
      <point x="429" y="65"/>
      <point x="357" y="-1"/>
      <point x="248" y="-1" type="curve" smooth="yes"/>
      <point x="183" y="-1"/>
      <point x="108" y="26"/>
      <point x="58" y="69" type="curve"/>
      <point x="58" y="60" type="line"/>
      <point x="106" y="19"/>
      <point x="181" y="-8"/>
    </contour>
  </outline>
</glyph>
<glyph name="five" format="2">
  <advance width="493"/>
  <unicode hex="0035"/>
  <outline>
    <contour>
      <point x="236" y="-8" type="curve" smooth="yes"/>
      <point x="357" y="-8"/>
      <point x="437" y="70"/>
      <point x="437" y="187" type="curve" smooth="yes"/>
      <point x="437" y="302"/>
      <point x="350" y="379"/>
      <point x="219" y="379" type="curve" smooth="yes"/>
      <point x="173" y="379"/>
      <point x="137" y="375"/>
      <point x="97" y="369" type="curve"/>
      <point x="101" y="367" type="line"/>
      <point x="125" y="650" type="line"/>
      <point x="421" y="650" type="line"/>
      <point x="421" y="658" type="line"/>
      <point x="118" y="658" type="line"/>
      <point x="93" y="361" type="line"/>
      <point x="138" y="368"/>
      <point x="173" y="372"/>
      <point x="219" y="372" type="curve" smooth="yes"/>
      <point x="345" y="372"/>
      <point x="429" y="298"/>
      <point x="429" y="187" type="curve" smooth="yes"/>
      <point x="429" y="74"/>
      <point x="352" y="-1"/>
      <point x="236" y="-1" type="curve" smooth="yes"/>
      <point x="165" y="-1"/>
      <point x="100" y="31"/>
      <point x="56" y="78" type="curve"/>
      <point x="56" y="67" type="line"/>
      <point x="100" y="23"/>
      <point x="163" y="-8"/>
    </contour>
  </outline>
</glyph>
<glyph name="seven" format="2">
  <advance width="492"/>
  <unicode hex="0037"/>
  <outline>
    <contour>
      <point x="176" y="0" type="line" smooth="yes"/>
      <point x="184" y="0" type="line" smooth="yes"/>
      <point x="436" y="650" type="line" smooth="yes"/>
      <point x="436" y="658" type="line" smooth="yes"/>
      <point x="56" y="658" type="line" smooth="yes"/>
      <point x="56" y="650" type="line" smooth="yes"/>
      <point x="431" y="650" type="line" smooth="yes"/>
      <point x="430" y="655" type="line" smooth="yes"/>
    </contour>
  </outline>
</glyph>
<glyph name="question" format="2">
  <advance width="420"/>
  <unicode hex="003F"/>
  <outline>
    <contour>
      <point x="193" y="164" type="curve"/>
      <point x="201" y="164" type="line"/>
      <point x="201" y="252"/>
      <point x="222" y="296"/>
      <point x="293" y="378" type="curve" smooth="yes"/>
      <point x="354" y="449"/>
      <point x="380" y="496"/>
      <point x="380" y="561" type="curve" smooth="yes"/>
      <point x="380" y="650"/>
      <point x="309" y="724"/>
      <point x="198" y="724" type="curve" smooth="yes"/>
      <point x="140" y="724"/>
      <point x="78" y="701"/>
      <point x="40" y="665" type="curve"/>
      <point x="40" y="655" type="line"/>
      <point x="77" y="692"/>
      <point x="141" y="717"/>
      <point x="198" y="717" type="curve" smooth="yes"/>
      <point x="305" y="717"/>
      <point x="372" y="646"/>
      <point x="372" y="561" type="curve" smooth="yes"/>
      <point x="372" y="499"/>
      <point x="346" y="451"/>
      <point x="287" y="383" type="curve" smooth="yes"/>
      <point x="214" y="299"/>
      <point x="193" y="253"/>
    </contour>
    <contour>
      <point x="185" y="0" type="line"/>
      <point x="209" y="0" type="line"/>
      <point x="209" y="24" type="line"/>
      <point x="185" y="24" type="line"/>
    </contour>
  </outline>
</glyph>
<glyph name="at" format="2">
  <advance width="823"/>
  <unicode hex="0040"/>
  <outline>
    <contour>
      <point x="401" y="-62" type="curve" smooth="yes"/>
      <point x="465" y="-62"/>
      <point x="526" y="-48"/>
      <point x="579" y="-21" type="curve"/>
      <point x="579" y="-13" type="line"/>
      <point x="528" y="-41"/>
      <point x="467" y="-55"/>
      <point x="401" y="-55" type="curve" smooth="yes"/>
      <point x="203" y="-55"/>
      <point x="71" y="92"/>
      <point x="71" y="282" type="curve" smooth="yes"/>
      <point x="71" y="462"/>
      <point x="211" y="623"/>
      <point x="412" y="623" type="curve" smooth="yes"/>
      <point x="604" y="623"/>
      <point x="752" y="490"/>
      <point x="752" y="312" type="curve" smooth="yes"/>
      <point x="752" y="197"/>
      <point x="691" y="121"/>
      <point x="619" y="121" type="curve" smooth="yes"/>
      <point x="548" y="121"/>
      <point x="511" y="194"/>
      <point x="523" y="279" type="curve" smooth="yes"/>
      <point x="547" y="461" type="line"/>
      <point x="522" y="466"/>
      <point x="486" y="470"/>
      <point x="460" y="470" type="curve" smooth="yes"/>
      <point x="339" y="470"/>
      <point x="235" y="385"/>
      <point x="235" y="257" type="curve" smooth="yes"/>
      <point x="235" y="171"/>
      <point x="286" y="114"/>
      <point x="364" y="114" type="curve" smooth="yes"/>
      <point x="444" y="114"/>
      <point x="508" y="179"/>
      <point x="524" y="304" type="curve"/>
      <point x="517" y="279" type="line"/>
      <point x="504" y="180"/>
      <point x="552" y="114"/>
      <point x="619" y="114" type="curve" smooth="yes"/>
      <point x="703" y="114"/>
      <point x="759" y="206"/>
      <point x="759" y="313" type="curve" smooth="yes"/>
      <point x="759" y="503"/>
      <point x="599" y="630"/>
      <point x="412" y="630" type="curve" smooth="yes"/>
      <point x="228" y="630"/>
      <point x="64" y="487"/>
      <point x="64" y="282" type="curve" smooth="yes"/>
      <point x="64" y="83"/>
      <point x="204" y="-62"/>
    </contour>
    <contour>
      <point x="364" y="121" type="curve" smooth="yes"/>
      <point x="291" y="121"/>
      <point x="243" y="175"/>
      <point x="243" y="257" type="curve" smooth="yes"/>
      <point x="243" y="368"/>
      <point x="330" y="463"/>
      <point x="460" y="463" type="curve" smooth="yes"/>
      <point x="484" y="463"/>
      <point x="516" y="460"/>
      <point x="538" y="455" type="curve"/>
      <point x="518" y="303" type="line" smooth="yes"/>
      <point x="504" y="194"/>
      <point x="448" y="121"/>
    </contour>
  </outline>
</glyph>
<glyph name="A" format="2">
  <advance width="576"/>
  <unicode hex="0041"/>
  <anchor x="287" y="642" name="top"/>
  <anchor x="545" y="16" name="ogonek"/>
  <outline>
    <contour>
      <point x="24" y="0" type="line"/>
      <point x="32" y="0" type="line"/>
      <point x="134" y="263" type="line"/>
      <point x="131" y="263" type="line"/>
      <point x="446" y="263" type="line"/>
      <point x="441" y="263" type="line"/>
      <point x="543" y="0" type="line"/>
      <point x="552" y="0" type="line"/>
      <point x="291" y="670" type="line"/>
      <point x="285" y="670" type="line"/>
    </contour>
    <contour>
      <point x="137" y="270" type="line"/>
      <point x="265" y="598" type="line"/>
      <point x="289" y="663" type="line"/>
      <point x="285" y="663" type="line"/>
      <point x="310" y="598" type="line"/>
      <point x="438" y="270" type="line"/>
      <point x="442" y="270" type="line"/>
      <point x="133" y="270" type="line"/>
    </contour>
  </outline>
</glyph>
<glyph name="B" format="2">
  <advance width="515"/>
  <unicode hex="0042"/>
  <outline>
    <contour>
      <point x="92" y="0" type="line"/>
      <point x="249" y="0" type="line" smooth="yes"/>
      <point x="365" y="0"/>
      <point x="443" y="70"/>
      <point x="443" y="174" type="curve" smooth="yes"/>
      <point x="443" y="273"/>
      <point x="360" y="339"/>
      <point x="236" y="339" type="curve"/>
      <point x="236" y="334" type="line"/>
      <point x="345" y="334"/>
      <point x="419" y="398"/>
      <point x="419" y="495" type="curve" smooth="yes"/>
      <point x="419" y="593"/>
      <point x="344" y="658"/>
      <point x="231" y="658" type="curve" smooth="yes"/>
      <point x="92" y="658" type="line"/>
    </contour>
    <contour>
      <point x="100" y="340" type="line"/>
      <point x="100" y="651" type="line"/>
      <point x="231" y="651" type="line" smooth="yes"/>
      <point x="339" y="651"/>
      <point x="411" y="589"/>
      <point x="411" y="495" type="curve" smooth="yes"/>
      <point x="411" y="402"/>
      <point x="341" y="340"/>
      <point x="236" y="340" type="curve" smooth="yes"/>
    </contour>
    <contour>
      <point x="100" y="7" type="line"/>
      <point x="100" y="333" type="line"/>
      <point x="236" y="333" type="line" smooth="yes"/>
      <point x="355" y="333"/>
      <point x="435" y="269"/>
      <point x="435" y="174" type="curve" smooth="yes"/>
      <point x="435" y="74"/>
      <point x="361" y="7"/>
      <point x="249" y="7" type="curve" smooth="yes"/>
    </contour>
  </outline>
</glyph>
<glyph name="C" format="2">
  <advance width="657"/>
  <unicode hex="0043"/>
  <anchor x="394" y="642" name="top"/>
  <anchor x="393" y="16" name="bottom"/>
  <outline>
    <contour>
      <point x="395" y="-8" type="curve" smooth="yes"/>
      <point x="469" y="-8"/>
      <point x="541" y="11"/>
      <point x="607" y="47" type="curve"/>
      <point x="607" y="55" type="line"/>
      <point x="542" y="18"/>
      <point x="470" y="-1"/>
      <point x="395" y="-1" type="curve" smooth="yes"/>
      <point x="199" y="-1"/>
      <point x="68" y="131"/>
      <point x="68" y="328" type="curve" smooth="yes"/>
      <point x="68" y="527"/>
      <point x="199" y="659"/>
      <point x="395" y="659" type="curve" smooth="yes"/>
      <point x="467" y="659"/>
      <point x="534" y="644"/>
      <point x="600" y="614" type="curve"/>
      <point x="600" y="622" type="line"/>
      <point x="535" y="651"/>
      <point x="466" y="666"/>
      <point x="395" y="666" type="curve" smooth="yes"/>
      <point x="194" y="666"/>
      <point x="60" y="531"/>
      <point x="60" y="328" type="curve" smooth="yes"/>
      <point x="60" y="126"/>
      <point x="194" y="-8"/>
    </contour>
  </outline>
</glyph>
<glyph name="D" format="2">
  <advance width="680"/>
  <unicode hex="0044"/>
  <anchor x="285" y="642" name="top"/>
  <outline>
    <contour>
      <point x="92" y="0" type="line"/>
      <point x="255" y="0" type="line" smooth="yes"/>
      <point x="474" y="0"/>
      <point x="620" y="135"/>
      <point x="620" y="337" type="curve" smooth="yes"/>
      <point x="620" y="530"/>
      <point x="477" y="658"/>
      <point x="263" y="658" type="curve" smooth="yes"/>
      <point x="92" y="658" type="line"/>
    </contour>
    <contour>
      <point x="100" y="7" type="line"/>
      <point x="100" y="651" type="line"/>
      <point x="264" y="651" type="line" smooth="yes"/>
      <point x="473" y="651"/>
      <point x="612" y="525"/>
      <point x="612" y="337" type="curve" smooth="yes"/>
      <point x="612" y="139"/>
      <point x="470" y="7"/>
      <point x="256" y="7" type="curve" smooth="yes"/>
    </contour>
  </outline>
</glyph>
<glyph name="E" format="2">
  <advance width="483"/>
  <unicode hex="0045"/>
  <anchor x="254" y="642" name="top"/>
  <anchor x="419" y="16" name="ogonek"/>
  <outline>
    <contour>
      <point x="92" y="0" type="line"/>
      <point x="419" y="0" type="line"/>
      <point x="419" y="7" type="line"/>
      <point x="100" y="7" type="line"/>
      <point x="100" y="330" type="line"/>
      <point x="391" y="330" type="line"/>
      <point x="391" y="337" type="line"/>
      <point x="100" y="337" type="line"/>
      <point x="100" y="651" type="line"/>
      <point x="407" y="651" type="line"/>
      <point x="407" y="658" type="line"/>
      <point x="92" y="658" type="line"/>
    </contour>
  </outline>
</glyph>
<glyph name="G" format="2">
  <advance width="686"/>
  <unicode hex="0047"/>
  <anchor x="387" y="642" name="top"/>
  <anchor x="388" y="16" name="bottom"/>
  <outline>
    <contour>
      <point x="388" y="-8" type="curve" smooth="yes"/>
      <point x="471" y="-8"/>
      <point x="549" y="7"/>
      <point x="616" y="36" type="curve"/>
      <point x="616" y="300" type="line"/>
      <point x="447" y="300" type="line"/>
      <point x="447" y="293" type="line"/>
      <point x="608" y="293" type="line"/>
      <point x="608" y="40" type="line"/>
      <point x="542" y="12"/>
      <point x="467" y="-1"/>
      <point x="388" y="-1" type="curve" smooth="yes"/>
      <point x="199" y="-1"/>
      <point x="68" y="132"/>
      <point x="68" y="330" type="curve" smooth="yes"/>
      <point x="68" y="527"/>
      <point x="201" y="659"/>
      <point x="392" y="659" type="curve" smooth="yes"/>
      <point x="461" y="659"/>
      <point x="531" y="644"/>
      <point x="597" y="614" type="curve"/>
      <point x="597" y="622" type="line"/>
      <point x="532" y="651"/>
      <point x="463" y="666"/>
      <point x="392" y="666" type="curve" smooth="yes"/>
      <point x="195" y="666"/>
      <point x="60" y="532"/>
      <point x="60" y="330" type="curve" smooth="yes"/>
      <point x="60" y="127"/>
      <point x="194" y="-8"/>
    </contour>
  </outline>
</glyph>
<glyph name="J" format="2">
  <advance width="205"/>
  <unicode hex="004A"/>
  <anchor x="109" y="642" name="top"/>
  <outline>
    <contour>
      <point x="8" y="-220" type="line" smooth="yes"/>
      <point x="71" y="-220"/>
      <point x="113" y="-176"/>
      <point x="113" y="-110" type="curve" smooth="yes"/>
      <point x="113" y="658" type="line"/>
      <point x="105" y="658" type="line"/>
      <point x="105" y="-110" type="line" smooth="yes"/>
      <point x="105" y="-171"/>
      <point x="66" y="-213"/>
      <point x="8" y="-213" type="curve" smooth="yes"/>
      <point x="0" y="-213" type="line"/>
      <point x="0" y="-220" type="line"/>
    </contour>
  </outline>
</glyph>
<glyph name="K" format="2">
  <advance width="503"/>
  <unicode hex="004B"/>
  <anchor x="270" y="16" name="bottom"/>
  <outline>
    <contour>
      <point x="92" y="0" type="line"/>
      <point x="100" y="0" type="line"/>
      <point x="100" y="333" type="line"/>
      <point x="96" y="333" type="line"/>
      <point x="439" y="0" type="line"/>
      <point x="451" y="0" type="line"/>
      <point x="101" y="339" type="line"/>
      <point x="101" y="332" type="line"/>
      <point x="441" y="658" type="line"/>
      <point x="430" y="658" type="line"/>
      <point x="96" y="337" type="line"/>
      <point x="100" y="337" type="line"/>
      <point x="100" y="658" type="line"/>
      <point x="92" y="658" type="line"/>
    </contour>
  </outline>
</glyph>
<glyph name="L" format="2">
  <advance width="441"/>
  <unicode hex="004C"/>
  <anchor x="116" y="642" name="top"/>
  <anchor x="256" y="16" name="bottom"/>
  <anchor x="288" y="642" name="caron.vert"/>
  <outline>
    <contour>
      <point x="92" y="0" type="line"/>
      <point x="417" y="0" type="line"/>
      <point x="417" y="7" type="line"/>
      <point x="100" y="7" type="line"/>
      <point x="100" y="658" type="line"/>
      <point x="92" y="658" type="line"/>
    </contour>
  </outline>
</glyph>
<glyph name="M" format="2">
  <advance width="726"/>
  <unicode hex="004D"/>
  <outline>
    <contour>
      <point x="92" y="0" type="line"/>
      <point x="99" y="0" type="line"/>
      <point x="99" y="587" type="line"/>
      <point x="99" y="655" type="line"/>
      <point x="95" y="654" type="line"/>
      <point x="129" y="586" type="line"/>
      <point x="360" y="124" type="line"/>
      <point x="366" y="124" type="line"/>
      <point x="598" y="588" type="line" smooth="yes"/>
      <point x="631" y="654" type="line"/>
      <point x="626" y="653" type="line"/>
      <point x="626" y="587" type="line"/>
      <point x="626" y="0" type="line"/>
      <point x="634" y="0" type="line"/>
      <point x="634" y="658" type="line"/>
      <point x="625" y="658" type="line"/>
      <point x="393" y="194" type="line"/>
      <point x="362" y="132" type="line"/>
      <point x="365" y="132" type="line"/>
      <point x="334" y="194" type="line"/>
      <point x="102" y="658" type="line"/>
      <point x="92" y="658" type="line"/>
    </contour>
  </outline>
</glyph>
<glyph name="N" format="2">
  <advance width="704"/>
  <unicode hex="004E"/>
  <anchor x="353" y="642" name="top"/>
  <anchor x="352" y="0" name="bottom"/>
  <outline>
    <contour>
      <point x="92" y="0" type="line"/>
      <point x="99" y="0" type="line"/>
      <point x="99" y="587" type="line"/>
      <point x="99" y="655" type="line"/>
      <point x="94" y="655" type="line"/>
      <point x="147" y="587" type="line"/>
      <point x="603" y="0" type="line"/>
      <point x="612" y="0" type="line"/>
      <point x="612" y="658" type="line"/>
      <point x="605" y="658" type="line"/>
      <point x="605" y="71" type="line"/>
      <point x="605" y="7" type="line"/>
      <point x="608" y="7" type="line"/>
      <point x="558" y="71" type="line"/>
      <point x="102" y="658" type="line"/>
      <point x="92" y="658" type="line"/>
    </contour>
  </outline>
</glyph>
<glyph name="O" format="2">
  <advance width="768"/>
  <unicode hex="004F"/>
  <anchor x="384" y="642" name="top"/>
  <outline>
    <contour>
      <point x="384" y="-8" type="curve" smooth="yes"/>
      <point x="578" y="-8"/>
      <point x="708" y="127"/>
      <point x="708" y="329" type="curve" smooth="yes"/>
      <point x="708" y="532"/>
      <point x="578" y="666"/>
      <point x="384" y="666" type="curve" smooth="yes"/>
      <point x="190" y="666"/>
      <point x="60" y="532"/>
      <point x="60" y="329" type="curve" smooth="yes"/>
      <point x="60" y="127"/>
      <point x="190" y="-8"/>
    </contour>
    <contour>
      <point x="384" y="-1" type="curve" smooth="yes"/>
      <point x="194" y="-1"/>
      <point x="68" y="131"/>
      <point x="68" y="329" type="curve" smooth="yes"/>
      <point x="68" y="528"/>
      <point x="194" y="659"/>
      <point x="384" y="659" type="curve" smooth="yes"/>
      <point x="574" y="659"/>
      <point x="700" y="528"/>
      <point x="700" y="329" type="curve" smooth="yes"/>
      <point x="700" y="131"/>
      <point x="574" y="-1"/>
    </contour>
  </outline>
</glyph>
<glyph name="P" format="2">
  <advance width="456"/>
  <unicode hex="0050"/>
  <outline>
    <contour>
      <point x="92" y="0" type="line"/>
      <point x="100" y="0" type="line"/>
      <point x="100" y="281" type="line"/>
      <point x="177" y="281" type="line" smooth="yes"/>
      <point x="309" y="281"/>
      <point x="396" y="355"/>
      <point x="396" y="468" type="curve" smooth="yes"/>
      <point x="396" y="582"/>
      <point x="309" y="658"/>
      <point x="177" y="658" type="curve" smooth="yes"/>
      <point x="92" y="658" type="line"/>
    </contour>
    <contour>
      <point x="100" y="288" type="line"/>
      <point x="100" y="651" type="line"/>
      <point x="176" y="651" type="line" smooth="yes"/>
      <point x="304" y="651"/>
      <point x="388" y="577"/>
      <point x="388" y="468" type="curve" smooth="yes"/>
      <point x="388" y="360"/>
      <point x="304" y="288"/>
      <point x="177" y="288" type="curve" smooth="yes"/>
    </contour>
  </outline>
</glyph>
<glyph name="Q" format="2">
  <advance width="768"/>
  <unicode hex="0051"/>
  <guideline x="709" y="394" angle="90.0" identifier="D9ZbGaj5Ep"/>
  <outline>
    <contour>
      <point x="694" y="-120" type="curve"/>
      <point x="694" y="-112" type="line"/>
      <point x="596" y="-86"/>
      <point x="515" y="-48"/>
      <point x="455" y="1" type="curve"/>
      <point x="444" y="0" type="line"/>
      <point x="509" y="-53"/>
      <point x="594" y="-94"/>
    </contour>
    <component base="O"/>
  </outline>
</glyph>
<glyph name="R" format="2">
  <advance width="511"/>
  <unicode hex="0052"/>
  <anchor x="234" y="642" name="top"/>
  <anchor x="267" y="16" name="bottom"/>
  <outline>
    <contour>
      <point x="450" y="0" type="line"/>
      <point x="459" y="0" type="line"/>
      <point x="369" y="232" type="line" smooth="yes"/>
      <point x="342" y="299"/>
      <point x="295" y="335"/>
      <point x="232" y="336" type="curve"/>
      <point x="232" y="334" type="line"/>
      <point x="325" y="334"/>
      <point x="404" y="399"/>
      <point x="404" y="493" type="curve" smooth="yes"/>
      <point x="404" y="591"/>
      <point x="332" y="658"/>
      <point x="212" y="658" type="curve" smooth="yes"/>
      <point x="92" y="658" type="line"/>
      <point x="92" y="0" type="line"/>
      <point x="100" y="0" type="line"/>
      <point x="100" y="332" type="line"/>
      <point x="214" y="332" type="line" smooth="yes"/>
      <point x="286" y="332"/>
      <point x="336" y="298"/>
      <point x="361" y="231" type="curve" smooth="yes"/>
    </contour>
    <contour>
      <point x="100" y="339" type="line"/>
      <point x="100" y="651" type="line"/>
      <point x="212" y="651" type="line" smooth="yes"/>
      <point x="328" y="651"/>
      <point x="396" y="587"/>
      <point x="396" y="493" type="curve" smooth="yes"/>
      <point x="396" y="409"/>
      <point x="328" y="339"/>
      <point x="226" y="339" type="curve" smooth="yes"/>
    </contour>
  </outline>
</glyph>
<glyph name="S" format="2">
  <advance width="504"/>
  <unicode hex="0053"/>
  <anchor x="262" y="642" name="top"/>
  <anchor x="248" y="16" name="bottom"/>
  <outline>
    <contour>
      <point x="254" y="-9" type="curve" smooth="yes"/>
      <point x="360" y="-9"/>
      <point x="434" y="61"/>
      <point x="434" y="162" type="curve" smooth="yes"/>
      <point x="434" y="252"/>
      <point x="388" y="302"/>
      <point x="264" y="346" type="curve" smooth="yes"/>
      <point x="247" y="352" type="line" smooth="yes"/>
      <point x="138" y="389"/>
      <point x="96" y="434"/>
      <point x="96" y="514" type="curve" smooth="yes"/>
      <point x="96" y="602"/>
      <point x="162" y="660"/>
      <point x="263" y="660" type="curve" smooth="yes"/>
      <point x="316" y="660"/>
      <point x="372" y="644"/>
      <point x="425" y="611" type="curve"/>
      <point x="425" y="619" type="line"/>
      <point x="373" y="651"/>
      <point x="317" y="667"/>
      <point x="263" y="667" type="curve" smooth="yes"/>
      <point x="157" y="667"/>
      <point x="88" y="606"/>
      <point x="88" y="514" type="curve" smooth="yes"/>
      <point x="88" y="430"/>
      <point x="130" y="385"/>
      <point x="245" y="344" type="curve" smooth="yes"/>
      <point x="262" y="338" type="line" smooth="yes"/>
      <point x="380" y="296"/>
      <point x="426" y="249"/>
      <point x="426" y="162" type="curve" smooth="yes"/>
      <point x="426" y="65"/>
      <point x="356" y="-2"/>
      <point x="254" y="-2" type="curve" smooth="yes"/>
      <point x="187" y="-2"/>
      <point x="119" y="23"/>
      <point x="70" y="60" type="curve"/>
      <point x="70" y="51" type="line"/>
      <point x="117" y="15"/>
      <point x="187" y="-9"/>
    </contour>
  </outline>
</glyph>
<glyph name="U" format="2">
  <advance width="663"/>
  <unicode hex="0055"/>
  <anchor x="335" y="642" name="top"/>
  <outline>
    <contour>
      <point x="331" y="-9" type="curve" smooth="yes"/>
      <point x="480" y="-9"/>
      <point x="579" y="95"/>
      <point x="579" y="252" type="curve" smooth="yes"/>
      <point x="579" y="658" type="line"/>
      <point x="571" y="658" type="line"/>
      <point x="571" y="252" type="line" smooth="yes"/>
      <point x="571" y="100"/>
      <point x="476" y="-1"/>
      <point x="331" y="-1" type="curve" smooth="yes"/>
      <point x="188" y="-1"/>
      <point x="92" y="100"/>
      <point x="92" y="252" type="curve" smooth="yes"/>
      <point x="92" y="658" type="line"/>
      <point x="84" y="658" type="line"/>
      <point x="84" y="252" type="line" smooth="yes"/>
      <point x="84" y="95"/>
      <point x="183" y="-9"/>
    </contour>
  </outline>
</glyph>
<glyph name="V" format="2">
  <advance width="581"/>
  <unicode hex="0056"/>
  <outline>
    <contour>
      <point x="287" y="0" type="line"/>
      <point x="294" y="0" type="line"/>
      <point x="557" y="658" type="line"/>
      <point x="549" y="658" type="line"/>
      <point x="315" y="71" type="line"/>
      <point x="289" y="5" type="line"/>
      <point x="293" y="5" type="line"/>
      <point x="267" y="71" type="line"/>
      <point x="33" y="658" type="line"/>
      <point x="24" y="658" type="line"/>
    </contour>
  </outline>
</glyph>
<glyph name="W" format="2">
  <advance width="888"/>
  <unicode hex="0057"/>
  <anchor x="445" y="642" name="top"/>
  <outline>
    <contour>
      <point x="233" y="0" type="line"/>
      <point x="240" y="0" type="line"/>
      <point x="427" y="588" type="line"/>
      <point x="447" y="653" type="line"/>
      <point x="443" y="653" type="line"/>
      <point x="463" y="588" type="line"/>
      <point x="648" y="0" type="line"/>
      <point x="655" y="0" type="line"/>
      <point x="864" y="658" type="line"/>
      <point x="857" y="658" type="line"/>
      <point x="670" y="71" type="line"/>
      <point x="650" y="5" type="line"/>
      <point x="654" y="5" type="line"/>
      <point x="634" y="71" type="line"/>
      <point x="449" y="658" type="line"/>
      <point x="442" y="658" type="line"/>
      <point x="255" y="71" type="line"/>
      <point x="235" y="5" type="line"/>
      <point x="240" y="5" type="line"/>
      <point x="219" y="71" type="line"/>
      <point x="33" y="658" type="line"/>
      <point x="24" y="658" type="line"/>
    </contour>
  </outline>
</glyph>
<glyph name="X" format="2">
  <advance width="573"/>
  <unicode hex="0058"/>
  <outline>
    <contour>
      <point x="52" y="0" type="line"/>
      <point x="61" y="0" type="line"/>
      <point x="253" y="281" type="line"/>
      <point x="286" y="331" type="line"/>
      <point x="289" y="335" type="line"/>
      <point x="507" y="658" type="line"/>
      <point x="498" y="658" type="line"/>
      <point x="322" y="397" type="line"/>
      <point x="285" y="341" type="line"/>
      <point x="282" y="337" type="line"/>
    </contour>
    <contour>
      <point x="512" y="0" type="line"/>
      <point x="521" y="0" type="line"/>
      <point x="291" y="337" type="line"/>
      <point x="288" y="341" type="line"/>
      <point x="251" y="397" type="line"/>
      <point x="75" y="658" type="line"/>
      <point x="66" y="658" type="line"/>
      <point x="283" y="335" type="line"/>
      <point x="286" y="331" type="line"/>
      <point x="320" y="281" type="line"/>
    </contour>
  </outline>
</glyph>
<glyph name="Y" format="2">
  <advance width="519"/>
  <unicode hex="0059"/>
  <anchor x="260" y="642" name="top"/>
  <outline>
    <contour>
      <point x="255" y="0" type="line"/>
      <point x="263" y="0" type="line"/>
      <point x="263" y="314" type="line"/>
      <point x="261" y="306" type="line"/>
      <point x="499" y="658" type="line"/>
      <point x="490" y="658" type="line"/>
      <point x="289" y="361" type="line"/>
      <point x="257" y="313" type="line"/>
      <point x="263" y="312" type="line"/>
      <point x="231" y="360" type="line"/>
      <point x="30" y="658" type="line"/>
      <point x="20" y="658" type="line"/>
      <point x="258" y="305" type="line"/>
      <point x="255" y="314" type="line"/>
    </contour>
  </outline>
</glyph>
<glyph name="Z" format="2">
  <advance width="604"/>
  <unicode hex="005A"/>
  <anchor x="300" y="642" name="top"/>
  <outline>
    <contour>
      <point x="76" y="0" type="line"/>
      <point x="528" y="0" type="line"/>
      <point x="528" y="7" type="line"/>
      <point x="83" y="7" type="line"/>
      <point x="83" y="3" type="line"/>
      <point x="123" y="61" type="line"/>
      <point x="528" y="651" type="line"/>
      <point x="528" y="658" type="line"/>
      <point x="76" y="658" type="line"/>
      <point x="76" y="651" type="line"/>
      <point x="521" y="651" type="line"/>
      <point x="521" y="655" type="line"/>
      <point x="481" y="597" type="line"/>
      <point x="76" y="7" type="line"/>
    </contour>
  </outline>
</glyph>
<glyph name="a" format="2">
  <advance width="416"/>
  <unicode hex="0061"/>
  <anchor x="207" y="446" name="top"/>
  <anchor x="342" y="16" name="ogonek"/>
  <outline>
    <contour>
      <point x="192" y="-8" type="curve" smooth="yes"/>
      <point x="254" y="-8"/>
      <point x="303" y="18"/>
      <point x="336" y="67" type="curve"/>
      <point x="338" y="0" type="line"/>
      <point x="344" y="0" type="line"/>
      <point x="344" y="326" type="line" smooth="yes"/>
      <point x="344" y="414"/>
      <point x="290" y="470"/>
      <point x="207" y="470" type="curve" smooth="yes"/>
      <point x="161" y="470"/>
      <point x="108" y="452"/>
      <point x="70" y="424" type="curve"/>
      <point x="70" y="415" type="line"/>
      <point x="108" y="444"/>
      <point x="163" y="463"/>
      <point x="207" y="463" type="curve" smooth="yes"/>
      <point x="285" y="463"/>
      <point x="336" y="410"/>
      <point x="336" y="326" type="curve" smooth="yes"/>
      <point x="336" y="270" type="line"/>
      <point x="204" y="255" type="line" smooth="yes"/>
      <point x="113" y="245"/>
      <point x="52" y="192"/>
      <point x="52" y="119" type="curve" smooth="yes"/>
      <point x="52" y="42"/>
      <point x="110" y="-8"/>
    </contour>
    <contour>
      <point x="192" y="-1" type="curve" smooth="yes"/>
      <point x="114" y="-1"/>
      <point x="60" y="46"/>
      <point x="60" y="119" type="curve" smooth="yes"/>
      <point x="60" y="188"/>
      <point x="117" y="238"/>
      <point x="205" y="248" type="curve" smooth="yes"/>
      <point x="336" y="263" type="line"/>
      <point x="336" y="77" type="line"/>
      <point x="302" y="26"/>
      <point x="252" y="-1"/>
    </contour>
  </outline>
</glyph>
<glyph name="b" format="2">
  <advance width="489"/>
  <unicode hex="0062"/>
  <outline>
    <contour>
      <point x="219" y="-9" type="curve" smooth="yes"/>
      <point x="351" y="-9"/>
      <point x="439" y="89"/>
      <point x="439" y="235" type="curve" smooth="yes"/>
      <point x="439" y="376"/>
      <point x="359" y="470"/>
      <point x="235" y="470" type="curve" smooth="yes"/>
      <point x="179" y="470"/>
      <point x="128" y="450"/>
      <point x="84" y="412" type="curve"/>
      <point x="84" y="724" type="line"/>
      <point x="76" y="724" type="line"/>
      <point x="76" y="17" type="line"/>
      <point x="116" y="1"/>
      <point x="173" y="-9"/>
    </contour>
    <contour>
      <point x="219" y="-2" type="curve" smooth="yes"/>
      <point x="179" y="-2"/>
      <point x="124" y="7"/>
      <point x="84" y="22" type="curve"/>
      <point x="84" y="402" type="line"/>
      <point x="128" y="442"/>
      <point x="180" y="463"/>
      <point x="235" y="463" type="curve" smooth="yes"/>
      <point x="354" y="463"/>
      <point x="431" y="372"/>
      <point x="431" y="235" type="curve" smooth="yes"/>
      <point x="431" y="93"/>
      <point x="346" y="-2"/>
    </contour>
  </outline>
</glyph>
<glyph name="c" format="2">
  <advance width="469"/>
  <unicode hex="0063"/>
  <anchor x="264" y="446" name="top"/>
  <anchor x="235" y="16" name="bottom"/>
  <outline>
    <contour>
      <point x="275" y="-8" type="curve" smooth="yes"/>
      <point x="325" y="-8"/>
      <point x="378" y="10"/>
      <point x="417" y="35" type="curve"/>
      <point x="417" y="43" type="line"/>
      <point x="378" y="18"/>
      <point x="321" y="-1"/>
      <point x="275" y="-1" type="curve" smooth="yes"/>
      <point x="145" y="-1"/>
      <point x="58" y="91"/>
      <point x="58" y="230" type="curve" smooth="yes"/>
      <point x="58" y="370"/>
      <point x="142" y="463"/>
      <point x="269" y="463" type="curve" smooth="yes"/>
      <point x="319" y="463"/>
      <point x="369" y="449"/>
      <point x="417" y="422" type="curve"/>
      <point x="417" y="430" type="line"/>
      <point x="371" y="456"/>
      <point x="320" y="470"/>
      <point x="269" y="470" type="curve" smooth="yes"/>
      <point x="138" y="470"/>
      <point x="50" y="374"/>
      <point x="50" y="230" type="curve" smooth="yes"/>
      <point x="50" y="87"/>
      <point x="140" y="-8"/>
    </contour>
  </outline>
</glyph>
<glyph name="d" format="2">
  <advance width="498"/>
  <unicode hex="0064"/>
  <anchor x="537" y="708" name="caron.vert"/>
  <outline>
    <contour>
      <point x="255" y="-8" type="curve" smooth="yes"/>
      <point x="321" y="-8"/>
      <point x="377" y="22"/>
      <point x="414" y="67" type="curve"/>
      <point x="416" y="0" type="line"/>
      <point x="422" y="0" type="line"/>
      <point x="422" y="724" type="line"/>
      <point x="414" y="724" type="line"/>
      <point x="414" y="411" type="line"/>
      <point x="374" y="447"/>
      <point x="319" y="470"/>
      <point x="261" y="470" type="curve" smooth="yes"/>
      <point x="138" y="470"/>
      <point x="50" y="375"/>
      <point x="50" y="232" type="curve" smooth="yes"/>
      <point x="50" y="88"/>
      <point x="133" y="-8"/>
    </contour>
    <contour>
      <point x="255" y="-1" type="curve" smooth="yes"/>
      <point x="138" y="-1"/>
      <point x="58" y="92"/>
      <point x="58" y="232" type="curve" smooth="yes"/>
      <point x="58" y="371"/>
      <point x="143" y="463"/>
      <point x="261" y="463" type="curve" smooth="yes"/>
      <point x="316" y="463"/>
      <point x="369" y="442"/>
      <point x="414" y="402" type="curve"/>
      <point x="414" y="76" type="line"/>
      <point x="373" y="25"/>
      <point x="314" y="-1"/>
    </contour>
  </outline>
</glyph>
<glyph name="e" format="2">
  <advance width="490"/>
  <unicode hex="0065"/>
  <anchor x="251" y="446" name="top"/>
  <outline>
    <contour>
      <point x="262" y="-8" type="curve" smooth="yes"/>
      <point x="320" y="-8"/>
      <point x="376" y="9"/>
      <point x="426" y="43" type="curve"/>
      <point x="426" y="52" type="line"/>
      <point x="378" y="19"/>
      <point x="322" y="-1"/>
      <point x="262" y="-1" type="curve" smooth="yes"/>
      <point x="140" y="-1"/>
      <point x="58" y="92"/>
      <point x="58" y="231" type="curve" smooth="yes"/>
      <point x="58" y="236" type="line" smooth="yes"/>
      <point x="58" y="372"/>
      <point x="136" y="463"/>
      <point x="254" y="463" type="curve" smooth="yes"/>
      <point x="359" y="463"/>
      <point x="430" y="381"/>
      <point x="430" y="257" type="curve"/>
      <point x="53" y="257" type="line"/>
      <point x="53" y="250" type="line"/>
      <point x="438" y="250" type="line"/>
      <point x="438" y="252" type="line" smooth="yes"/>
      <point x="438" y="383"/>
      <point x="364" y="470"/>
      <point x="254" y="470" type="curve" smooth="yes"/>
      <point x="130" y="470"/>
      <point x="50" y="376"/>
      <point x="50" y="233" type="curve" smooth="yes"/>
      <point x="50" y="88"/>
      <point x="135" y="-8"/>
    </contour>
  </outline>
</glyph>
<glyph name="f" format="2">
  <advance width="232"/>
  <unicode hex="0066"/>
  <outline>
    <contour>
      <point x="110" y="0" type="line"/>
      <point x="118" y="0" type="line"/>
      <point x="118" y="455" type="line"/>
      <point x="216" y="455" type="line"/>
      <point x="216" y="462" type="line"/>
      <point x="118" y="462" type="line"/>
      <point x="118" y="593" type="line" smooth="yes"/>
      <point x="118" y="679"/>
      <point x="164" y="725"/>
      <point x="234" y="725" type="curve" smooth="yes"/>
      <point x="261" y="725"/>
      <point x="288" y="719"/>
      <point x="312" y="707" type="curve"/>
      <point x="312" y="714" type="line"/>
      <point x="288" y="726"/>
      <point x="261" y="732"/>
      <point x="234" y="732" type="curve" smooth="yes"/>
      <point x="159" y="732"/>
      <point x="110" y="684"/>
      <point x="110" y="593" type="curve" smooth="yes"/>
      <point x="110" y="462" type="line"/>
      <point x="22" y="462" type="line"/>
      <point x="22" y="455" type="line"/>
      <point x="110" y="455" type="line"/>
    </contour>
  </outline>
</glyph>
<glyph name="g" format="2">
  <advance width="500"/>
  <unicode hex="0067"/>
  <anchor x="258" y="446" name="top"/>
  <outline>
    <contour>
      <point x="257" y="-1" type="curve" smooth="yes"/>
      <point x="140" y="-1"/>
      <point x="60" y="92"/>
      <point x="60" y="232" type="curve" smooth="yes"/>
      <point x="60" y="371"/>
      <point x="145" y="463"/>
      <point x="263" y="463" type="curve" smooth="yes"/>
      <point x="318" y="463"/>
      <point x="371" y="442"/>
      <point x="416" y="402" type="curve"/>
      <point x="416" y="76" type="line"/>
      <point x="375" y="25"/>
      <point x="316" y="-1"/>
    </contour>
    <contour>
      <point x="225" y="-228" type="curve" smooth="yes"/>
      <point x="346" y="-228"/>
      <point x="424" y="-145"/>
      <point x="424" y="-17" type="curve" smooth="yes"/>
      <point x="424" y="462" type="line"/>
      <point x="418" y="462" type="line"/>
      <point x="416" y="411" type="line"/>
      <point x="376" y="447"/>
      <point x="321" y="470"/>
      <point x="263" y="470" type="curve" smooth="yes"/>
      <point x="140" y="470"/>
      <point x="52" y="375"/>
      <point x="52" y="232" type="curve" smooth="yes"/>
      <point x="52" y="88"/>
      <point x="135" y="-8"/>
      <point x="257" y="-8" type="curve" smooth="yes"/>
      <point x="323" y="-8"/>
      <point x="379" y="22"/>
      <point x="416" y="67" type="curve"/>
      <point x="416" y="-17" type="line" smooth="yes"/>
      <point x="416" y="-141"/>
      <point x="342" y="-221"/>
      <point x="225" y="-221" type="curve" smooth="yes"/>
      <point x="175" y="-221"/>
      <point x="112" y="-198"/>
      <point x="67" y="-166" type="curve"/>
      <point x="67" y="-174" type="line"/>
      <point x="111" y="-205"/>
      <point x="173" y="-228"/>
    </contour>
  </outline>
</glyph>
<glyph name="h" format="2">
  <advance width="462"/>
  <unicode hex="0068"/>
  <anchor x="80" y="646" name="top"/>
  <outline>
    <contour>
      <point x="76" y="0" type="line"/>
      <point x="84" y="0" type="line"/>
      <point x="84" y="370" type="line"/>
      <point x="111" y="426"/>
      <point x="169" y="463"/>
      <point x="233" y="463" type="curve" smooth="yes"/>
      <point x="321" y="463"/>
      <point x="382" y="401"/>
      <point x="382" y="307" type="curve" smooth="yes"/>
      <point x="382" y="0" type="line"/>
      <point x="390" y="0" type="line"/>
      <point x="390" y="307" type="line" smooth="yes"/>
      <point x="390" y="405"/>
      <point x="326" y="470"/>
      <point x="233" y="470" type="curve" smooth="yes"/>
      <point x="169" y="470"/>
      <point x="112" y="436"/>
      <point x="84" y="384" type="curve"/>
      <point x="84" y="724" type="line"/>
      <point x="76" y="724" type="line"/>
    </contour>
  </outline>
</glyph>
<glyph name="i" format="2">
  <advance width="172"/>
  <unicode hex="0069"/>
  <anchor x="85" y="446" name="top"/>
  <anchor x="92" y="16" name="ogonek"/>
  <outline>
    <contour>
      <point x="82" y="0" type="line"/>
      <point x="90" y="0" type="line"/>
      <point x="90" y="462" type="line"/>
      <point x="82" y="462" type="line"/>
    </contour>
    <contour>
      <point x="76" y="658" type="line"/>
      <point x="96" y="658" type="line"/>
      <point x="96" y="678" type="line"/>
      <point x="76" y="678" type="line"/>
    </contour>
  </outline>
</glyph>
<glyph name="j" format="2">
  <advance width="172"/>
  <unicode hex="006A"/>
  <anchor x="90" y="446" name="top"/>
  <outline>
    <contour>
      <point x="-32" y="-220" type="line" smooth="yes"/>
      <point x="41" y="-220"/>
      <point x="90" y="-166"/>
      <point x="90" y="-86" type="curve" smooth="yes"/>
      <point x="90" y="462" type="line"/>
      <point x="82" y="462" type="line"/>
      <point x="82" y="-86" type="line" smooth="yes"/>
      <point x="82" y="-162"/>
      <point x="36" y="-213"/>
      <point x="-32" y="-213" type="curve" smooth="yes"/>
      <point x="-40" y="-213" type="line"/>
      <point x="-40" y="-220" type="line"/>
    </contour>
    <contour>
      <point x="76" y="658" type="line"/>
      <point x="96" y="658" type="line"/>
      <point x="96" y="678" type="line"/>
      <point x="76" y="678" type="line"/>
    </contour>
  </outline>
</glyph>
<glyph name="k" format="2">
  <advance width="411"/>
  <unicode hex="006B"/>
  <anchor x="221" y="16" name="bottom"/>
  <outline>
    <contour>
      <point x="76" y="0" type="line"/>
      <point x="84" y="0" type="line"/>
      <point x="84" y="238" type="line"/>
      <point x="82" y="238" type="line"/>
      <point x="362" y="0" type="line"/>
      <point x="375" y="0" type="line"/>
      <point x="88" y="243" type="line"/>
      <point x="88" y="238" type="line"/>
      <point x="350" y="462" type="line"/>
      <point x="338" y="462" type="line"/>
      <point x="82" y="242" type="line"/>
      <point x="84" y="242" type="line"/>
      <point x="84" y="724" type="line"/>
      <point x="76" y="724" type="line"/>
    </contour>
  </outline>
</glyph>
<glyph name="l" format="2">
  <advance width="160"/>
  <unicode hex="006C"/>
  <anchor x="80" y="708" name="top"/>
  <anchor x="80" y="16" name="bottom"/>
  <anchor x="197" y="708" name="caron.vert"/>
  <outline>
    <contour>
      <point x="76" y="0" type="line"/>
      <point x="84" y="0" type="line"/>
      <point x="84" y="724" type="line"/>
      <point x="76" y="724" type="line"/>
    </contour>
  </outline>
</glyph>
<glyph name="m" format="2">
  <advance width="752"/>
  <unicode hex="006D"/>
  <outline>
    <contour>
      <point x="76" y="0" type="line"/>
      <point x="84" y="0" type="line"/>
      <point x="84" y="370" type="line"/>
      <point x="111" y="426"/>
      <point x="167" y="463"/>
      <point x="229" y="463" type="curve" smooth="yes"/>
      <point x="318" y="463"/>
      <point x="374" y="401"/>
      <point x="374" y="321" type="curve" smooth="yes"/>
      <point x="374" y="0" type="line"/>
      <point x="382" y="0" type="line"/>
      <point x="382" y="333" type="line"/>
      <point x="400" y="420"/>
      <point x="450" y="463"/>
      <point x="527" y="463" type="curve" smooth="yes"/>
      <point x="613" y="463"/>
      <point x="672" y="401"/>
      <point x="672" y="307" type="curve" smooth="yes"/>
      <point x="672" y="0" type="line"/>
      <point x="680" y="0" type="line"/>
      <point x="680" y="307" type="line" smooth="yes"/>
      <point x="680" y="405"/>
      <point x="618" y="470"/>
      <point x="527" y="470" type="curve" smooth="yes"/>
      <point x="450" y="470"/>
      <point x="400" y="430"/>
      <point x="379" y="351" type="curve"/>
      <point x="365" y="429"/>
      <point x="304" y="470"/>
      <point x="229" y="470" type="curve" smooth="yes"/>
      <point x="167" y="470"/>
      <point x="112" y="436"/>
      <point x="84" y="384" type="curve"/>
      <point x="84" y="462" type="line"/>
      <point x="76" y="462" type="line"/>
    </contour>
  </outline>
</glyph>
<glyph name="n" format="2">
  <advance width="462"/>
  <unicode hex="006E"/>
  <anchor x="222" y="446" name="top"/>
  <anchor x="231" y="16" name="bottom"/>
  <outline>
    <contour>
      <point x="76" y="0" type="line"/>
      <point x="84" y="0" type="line"/>
      <point x="84" y="370" type="line"/>
      <point x="111" y="426"/>
      <point x="169" y="463"/>
      <point x="233" y="463" type="curve" smooth="yes"/>
      <point x="320" y="463"/>
      <point x="382" y="401"/>
      <point x="382" y="307" type="curve" smooth="yes"/>
      <point x="382" y="0" type="line"/>
      <point x="390" y="0" type="line"/>
      <point x="390" y="307" type="line" smooth="yes"/>
      <point x="390" y="405"/>
      <point x="325" y="470"/>
      <point x="233" y="470" type="curve" smooth="yes"/>
      <point x="169" y="470"/>
      <point x="112" y="436"/>
      <point x="84" y="384" type="curve"/>
      <point x="84" y="462" type="line"/>
      <point x="76" y="462" type="line"/>
    </contour>
  </outline>
</glyph>
<glyph name="o" format="2">
  <advance width="548"/>
  <unicode hex="006F"/>
  <anchor x="274" y="446" name="top"/>
  <outline>
    <contour>
      <point x="274" y="-8" type="curve" smooth="yes"/>
      <point x="408" y="-8"/>
      <point x="498" y="88"/>
      <point x="498" y="231" type="curve" smooth="yes"/>
      <point x="498" y="374"/>
      <point x="408" y="470"/>
      <point x="274" y="470" type="curve" smooth="yes"/>
      <point x="140" y="470"/>
      <point x="50" y="374"/>
      <point x="50" y="231" type="curve" smooth="yes"/>
      <point x="50" y="88"/>
      <point x="140" y="-8"/>
    </contour>
    <contour>
      <point x="274" y="-1" type="curve" smooth="yes"/>
      <point x="144" y="-1"/>
      <point x="58" y="92"/>
      <point x="58" y="231" type="curve" smooth="yes"/>
      <point x="58" y="370"/>
      <point x="144" y="463"/>
      <point x="274" y="463" type="curve" smooth="yes"/>
      <point x="404" y="463"/>
      <point x="490" y="370"/>
      <point x="490" y="231" type="curve" smooth="yes"/>
      <point x="490" y="92"/>
      <point x="404" y="-1"/>
    </contour>
  </outline>
</glyph>
<glyph name="p" format="2">
  <advance width="489"/>
  <unicode hex="0070"/>
  <outline>
    <contour>
      <point x="76" y="-220" type="line"/>
      <point x="84" y="-220" type="line"/>
      <point x="84" y="45" type="line"/>
      <point x="121" y="13"/>
      <point x="180" y="-9"/>
      <point x="230" y="-9" type="curve" smooth="yes"/>
      <point x="351" y="-9"/>
      <point x="439" y="89"/>
      <point x="439" y="235" type="curve" smooth="yes"/>
      <point x="439" y="376"/>
      <point x="359" y="470"/>
      <point x="235" y="470" type="curve" smooth="yes"/>
      <point x="179" y="470"/>
      <point x="128" y="450"/>
      <point x="84" y="412" type="curve"/>
      <point x="84" y="462" type="line"/>
      <point x="76" y="462" type="line"/>
    </contour>
    <contour>
      <point x="230" y="-2" type="curve" smooth="yes"/>
      <point x="180" y="-2"/>
      <point x="121" y="21"/>
      <point x="84" y="55" type="curve"/>
      <point x="84" y="402" type="line"/>
      <point x="128" y="442"/>
      <point x="180" y="463"/>
      <point x="235" y="463" type="curve" smooth="yes"/>
      <point x="354" y="463"/>
      <point x="431" y="372"/>
      <point x="431" y="235" type="curve" smooth="yes"/>
      <point x="431" y="92"/>
      <point x="346" y="-2"/>
    </contour>
  </outline>
</glyph>
<glyph name="r" format="2">
  <advance width="272"/>
  <unicode hex="0072"/>
  <anchor x="163" y="446" name="top"/>
  <anchor x="80" y="16" name="bottom"/>
  <outline>
    <contour>
      <point x="76" y="0" type="line"/>
      <point x="84" y="0" type="line"/>
      <point x="84" y="366" type="line"/>
      <point x="112" y="430"/>
      <point x="152" y="463"/>
      <point x="198" y="463" type="curve" smooth="yes"/>
      <point x="219" y="463"/>
      <point x="240" y="459"/>
      <point x="260" y="451" type="curve"/>
      <point x="260" y="459" type="line"/>
      <point x="239" y="466"/>
      <point x="220" y="470"/>
      <point x="199" y="470" type="curve" smooth="yes"/>
      <point x="152" y="470"/>
      <point x="112" y="440"/>
      <point x="84" y="381" type="curve"/>
      <point x="84" y="462" type="line"/>
      <point x="76" y="462" type="line"/>
    </contour>
  </outline>
</glyph>
<glyph name="s" format="2">
  <advance width="379"/>
  <unicode hex="0073"/>
  <anchor x="196" y="446" name="top"/>
  <anchor x="193" y="16" name="bottom"/>
  <outline>
    <contour>
      <point x="186" y="-8" type="curve" smooth="yes"/>
      <point x="267" y="-8"/>
      <point x="325" y="43"/>
      <point x="325" y="108" type="curve" smooth="yes"/>
      <point x="325" y="173"/>
      <point x="291" y="212"/>
      <point x="202" y="242" type="curve" smooth="yes"/>
      <point x="184" y="248" type="line" smooth="yes"/>
      <point x="104" y="275"/>
      <point x="73" y="306"/>
      <point x="73" y="362" type="curve" smooth="yes"/>
      <point x="73" y="419"/>
      <point x="123" y="463"/>
      <point x="200" y="463" type="curve" smooth="yes"/>
      <point x="239" y="463"/>
      <point x="288" y="448"/>
      <point x="322" y="428" type="curve"/>
      <point x="322" y="437" type="line"/>
      <point x="288" y="456"/>
      <point x="240" y="470"/>
      <point x="200" y="470" type="curve" smooth="yes"/>
      <point x="118" y="470"/>
      <point x="65" y="423"/>
      <point x="65" y="362" type="curve" smooth="yes"/>
      <point x="65" y="302"/>
      <point x="98" y="268"/>
      <point x="182" y="240" type="curve" smooth="yes"/>
      <point x="200" y="234" type="line" smooth="yes"/>
      <point x="285" y="206"/>
      <point x="317" y="169"/>
      <point x="317" y="108" type="curve" smooth="yes"/>
      <point x="317" y="47"/>
      <point x="263" y="-1"/>
      <point x="186" y="-1" type="curve" smooth="yes"/>
      <point x="143" y="-1"/>
      <point x="92" y="17"/>
      <point x="54" y="48" type="curve"/>
      <point x="54" y="39" type="line"/>
      <point x="88" y="11"/>
      <point x="137" y="-8"/>
    </contour>
  </outline>
</glyph>
<glyph name="t" format="2">
  <advance width="296"/>
  <unicode hex="0074"/>
  <anchor x="187" y="16" name="bottom"/>
  <anchor x="254" y="708" name="caron.vert"/>
  <outline>
    <contour>
      <point x="188" y="-8" type="curve" smooth="yes"/>
      <point x="212" y="-8"/>
      <point x="242" y="1"/>
      <point x="262" y="14" type="curve"/>
      <point x="262" y="23" type="line"/>
      <point x="242" y="9"/>
      <point x="212" y="-1"/>
      <point x="188" y="-1" type="curve" smooth="yes"/>
      <point x="143" y="-1"/>
      <point x="120" y="30"/>
      <point x="120" y="76" type="curve" smooth="yes"/>
      <point x="120" y="455" type="line"/>
      <point x="254" y="455" type="line"/>
      <point x="254" y="462" type="line"/>
      <point x="120" y="462" type="line"/>
      <point x="120" y="624" type="line"/>
      <point x="112" y="624" type="line"/>
      <point x="112" y="462" type="line"/>
      <point x="32" y="462" type="line"/>
      <point x="32" y="455" type="line"/>
      <point x="112" y="455" type="line"/>
      <point x="112" y="76" type="line" smooth="yes"/>
      <point x="112" y="21"/>
      <point x="142" y="-8"/>
    </contour>
  </outline>
</glyph>
<glyph name="u" format="2">
  <advance width="462"/>
  <unicode hex="0075"/>
  <anchor x="227" y="446" name="top"/>
  <anchor x="388" y="16" name="ogonek"/>
  <outline>
    <contour>
      <point x="229" y="-8" type="curve" smooth="yes"/>
      <point x="292" y="-8"/>
      <point x="350" y="26"/>
      <point x="378" y="78" type="curve"/>
      <point x="380" y="0" type="line"/>
      <point x="386" y="0" type="line"/>
      <point x="386" y="462" type="line"/>
      <point x="378" y="462" type="line"/>
      <point x="378" y="92" type="line"/>
      <point x="351" y="36"/>
      <point x="294" y="-1"/>
      <point x="229" y="-1" type="curve" smooth="yes"/>
      <point x="141" y="-1"/>
      <point x="80" y="61"/>
      <point x="80" y="155" type="curve" smooth="yes"/>
      <point x="80" y="462" type="line"/>
      <point x="72" y="462" type="line"/>
      <point x="72" y="155" type="line" smooth="yes"/>
      <point x="72" y="57"/>
      <point x="136" y="-8"/>
    </contour>
  </outline>
</glyph>
<glyph name="v" format="2">
  <advance width="426"/>
  <unicode hex="0076"/>
  <outline>
    <contour>
      <point x="209" y="0" type="line"/>
      <point x="217" y="0" type="line"/>
      <point x="406" y="462" type="line"/>
      <point x="398" y="462" type="line"/>
      <point x="238" y="71" type="line"/>
      <point x="212" y="6" type="line"/>
      <point x="215" y="6" type="line"/>
      <point x="189" y="71" type="line"/>
      <point x="29" y="462" type="line"/>
      <point x="20" y="462" type="line"/>
    </contour>
  </outline>
</glyph>
<glyph name="w" format="2">
  <advance width="687"/>
  <unicode hex="0077"/>
  <anchor x="343" y="446" name="top"/>
  <outline>
    <contour>
      <point x="180" y="0" type="line"/>
      <point x="188" y="0" type="line"/>
      <point x="323" y="391" type="line"/>
      <point x="345" y="456" type="line"/>
      <point x="342" y="456" type="line"/>
      <point x="364" y="391" type="line"/>
      <point x="499" y="0" type="line"/>
      <point x="507" y="0" type="line"/>
      <point x="667" y="462" type="line"/>
      <point x="659" y="462" type="line"/>
      <point x="524" y="71" type="line"/>
      <point x="501" y="5" type="line"/>
      <point x="505" y="5" type="line"/>
      <point x="483" y="71" type="line"/>
      <point x="348" y="462" type="line"/>
      <point x="340" y="462" type="line"/>
      <point x="205" y="71" type="line"/>
      <point x="182" y="5" type="line"/>
      <point x="186" y="5" type="line"/>
      <point x="164" y="71" type="line"/>
      <point x="29" y="462" type="line"/>
      <point x="20" y="462" type="line"/>
    </contour>
  </outline>
</glyph>
<glyph name="x" format="2">
  <advance width="420"/>
  <unicode hex="0078"/>
  <outline>
    <contour>
      <point x="36" y="0" type="line"/>
      <point x="45" y="0" type="line"/>
      <point x="175" y="184" type="line"/>
      <point x="211" y="235" type="line"/>
      <point x="214" y="239" type="line"/>
      <point x="369" y="462" type="line"/>
      <point x="360" y="462" type="line"/>
      <point x="248" y="301" type="line"/>
      <point x="209" y="244" type="line"/>
      <point x="206" y="240" type="line"/>
    </contour>
    <contour>
      <point x="374" y="0" type="line"/>
      <point x="384" y="0" type="line"/>
      <point x="215" y="241" type="line"/>
      <point x="213" y="243" type="line"/>
      <point x="173" y="301" type="line"/>
      <point x="63" y="462" type="line"/>
      <point x="53" y="462" type="line"/>
      <point x="207" y="238" type="line"/>
      <point x="209" y="236" type="line"/>
      <point x="246" y="184" type="line"/>
    </contour>
  </outline>
</glyph>
<glyph name="y" format="2">
  <advance width="426"/>
  <unicode hex="0079"/>
  <anchor x="223" y="446" name="top"/>
  <outline>
    <contour>
      <point x="0" y="-220" type="line" smooth="yes"/>
      <point x="91" y="-220"/>
      <point x="151" y="-158"/>
      <point x="217" y="0" type="curve" smooth="yes"/>
      <point x="406" y="462" type="line"/>
      <point x="398" y="462" type="line"/>
      <point x="238" y="71" type="line"/>
      <point x="212" y="6" type="line"/>
      <point x="215" y="6" type="line"/>
      <point x="189" y="71" type="line"/>
      <point x="29" y="462" type="line"/>
      <point x="20" y="462" type="line"/>
      <point x="209" y="1" type="line"/>
      <point x="211" y="-5" type="line"/>
      <point x="211" y="3" type="line"/>
      <point x="146" y="-153"/>
      <point x="87" y="-213"/>
      <point x="0" y="-213" type="curve" smooth="yes"/>
      <point x="-8" y="-213" type="line"/>
      <point x="-8" y="-220" type="line"/>
    </contour>
  </outline>
</glyph>
<glyph name="z" format="2">
  <advance width="419"/>
  <unicode hex="007A"/>
  <anchor x="211" y="446" name="top"/>
  <outline>
    <contour>
      <point x="52" y="0" type="line"/>
      <point x="367" y="0" type="line"/>
      <point x="367" y="7" type="line"/>
      <point x="56" y="7" type="line"/>
      <point x="59" y="4" type="line"/>
      <point x="92" y="52" type="line"/>
      <point x="367" y="455" type="line"/>
      <point x="367" y="462" type="line"/>
      <point x="52" y="462" type="line"/>
      <point x="52" y="455" type="line"/>
      <point x="363" y="455" type="line"/>
      <point x="361" y="459" type="line"/>
      <point x="327" y="410" type="line"/>
      <point x="52" y="7" type="line"/>
    </contour>
  </outline>
</glyph>
<glyph name="braceleft" format="2">
  <advance width="403"/>
  <unicode hex="007B"/>
  <outline>
    <contour>
      <point x="360" y="-220" type="curve" smooth="yes"/>
      <point x="391" y="-220" type="line"/>
      <point x="391" y="-213" type="line"/>
      <point x="360" y="-213" type="line" smooth="yes"/>
      <point x="257" y="-213"/>
      <point x="193" y="-141"/>
      <point x="200" y="-34" type="curve" smooth="yes"/>
      <point x="208" y="88" type="line" smooth="yes"/>
      <point x="213" y="180"/>
      <point x="155" y="239"/>
      <point x="64" y="253" type="curve"/>
      <point x="64" y="250" type="line"/>
      <point x="155" y="264"/>
      <point x="213" y="322"/>
      <point x="208" y="416" type="curve" smooth="yes"/>
      <point x="200" y="538" type="line" smooth="yes"/>
      <point x="193" y="645"/>
      <point x="257" y="717"/>
      <point x="359" y="717" type="curve" smooth="yes"/>
      <point x="391" y="717" type="line"/>
      <point x="391" y="724" type="line"/>
      <point x="359" y="724" type="line" smooth="yes"/>
      <point x="252" y="724"/>
      <point x="185" y="650"/>
      <point x="192" y="538" type="curve" smooth="yes"/>
      <point x="200" y="416" type="line" smooth="yes"/>
      <point x="205" y="333"/>
      <point x="158" y="270"/>
      <point x="60" y="256" type="curve"/>
      <point x="60" y="247" type="line"/>
      <point x="158" y="232"/>
      <point x="205" y="170"/>
      <point x="200" y="88" type="curve" smooth="yes"/>
      <point x="192" y="-34" type="line" smooth="yes"/>
      <point x="185" y="-146"/>
      <point x="252" y="-220"/>
    </contour>
  </outline>
</glyph>
<glyph name="braceright" format="2">
  <advance width="403"/>
  <unicode hex="007D"/>
  <outline>
    <contour>
      <point x="12" y="-220" type="line"/>
      <point x="44" y="-220" type="line" smooth="yes"/>
      <point x="151" y="-220"/>
      <point x="218" y="-146"/>
      <point x="211" y="-34" type="curve" smooth="yes"/>
      <point x="203" y="88" type="line" smooth="yes"/>
      <point x="198" y="171"/>
      <point x="245" y="234"/>
      <point x="343" y="248" type="curve"/>
      <point x="343" y="257" type="line"/>
      <point x="245" y="272"/>
      <point x="198" y="334"/>
      <point x="203" y="416" type="curve" smooth="yes"/>
      <point x="211" y="538" type="line" smooth="yes"/>
      <point x="218" y="650"/>
      <point x="151" y="724"/>
      <point x="43" y="724" type="curve" smooth="yes"/>
      <point x="12" y="724" type="line"/>
      <point x="12" y="717" type="line"/>
      <point x="43" y="717" type="line" smooth="yes"/>
      <point x="146" y="717"/>
      <point x="210" y="645"/>
      <point x="203" y="538" type="curve" smooth="yes"/>
      <point x="195" y="416" type="line" smooth="yes"/>
      <point x="190" y="324"/>
      <point x="248" y="265"/>
      <point x="339" y="251" type="curve"/>
      <point x="339" y="254" type="line"/>
      <point x="248" y="240"/>
      <point x="190" y="182"/>
      <point x="195" y="88" type="curve" smooth="yes"/>
      <point x="203" y="-34" type="line" smooth="yes"/>
      <point x="210" y="-141"/>
      <point x="146" y="-213"/>
      <point x="44" y="-213" type="curve" smooth="yes"/>
      <point x="12" y="-213" type="line"/>
    </contour>
  </outline>
</glyph>
<glyph name="questiondown" format="2">
  <advance width="420"/>
  <unicode hex="00BF"/>
  <outline>
    <contour>
      <point x="211" y="438" type="line"/>
      <point x="235" y="438" type="line"/>
      <point x="235" y="462" type="line"/>
      <point x="211" y="462" type="line"/>
    </contour>
    <contour>
      <point x="222" y="-240" type="curve" smooth="yes"/>
      <point x="280" y="-240"/>
      <point x="342" y="-218"/>
      <point x="380" y="-184" type="curve"/>
      <point x="380" y="-173" type="line"/>
      <point x="343" y="-209"/>
      <point x="279" y="-233"/>
      <point x="222" y="-233" type="curve" smooth="yes"/>
      <point x="115" y="-233"/>
      <point x="48" y="-165"/>
      <point x="48" y="-84" type="curve" smooth="yes"/>
      <point x="48" y="-24"/>
      <point x="74" y="22"/>
      <point x="133" y="87" type="curve" smooth="yes"/>
      <point x="206" y="168"/>
      <point x="227" y="212"/>
      <point x="227" y="298" type="curve"/>
      <point x="219" y="298" type="line"/>
      <point x="219" y="213"/>
      <point x="198" y="171"/>
      <point x="127" y="92" type="curve" smooth="yes"/>
      <point x="66" y="24"/>
      <point x="40" y="-21"/>
      <point x="40" y="-84" type="curve" smooth="yes"/>
      <point x="40" y="-169"/>
      <point x="111" y="-240"/>
    </contour>
  </outline>
</glyph>
<glyph name="Delta" format="2">
  <advance width="559"/>
  <unicode hex="0394"/>
  <unicode hex="2206"/>
  <outline>
    <contour>
      <point x="48" y="0" type="line"/>
      <point x="276" y="682" type="line"/>
      <point x="284" y="682" type="line"/>
      <point x="511" y="0" type="line"/>
    </contour>
    <contour>
      <point x="59" y="8" type="line"/>
      <point x="500" y="8" type="line"/>
      <point x="280" y="670" type="line"/>
    </contour>
  </outline>
</glyph>
<glyph name="quoteleft" format="2">
  <advance width="138"/>
  <unicode hex="2018"/>
  <outline>
    <contour>
      <point x="64" y="560" type="line"/>
      <point x="72" y="560" type="line"/>
      <point x="72" y="608" type="line" smooth="yes"/>
      <point x="72" y="653"/>
      <point x="80" y="685"/>
      <point x="106" y="722" type="curve"/>
      <point x="100" y="726" type="line"/>
      <point x="68" y="684"/>
      <point x="64" y="648"/>
      <point x="64" y="608" type="curve" smooth="yes"/>
    </contour>
  </outline>
</glyph>
<glyph name="quotedblleft" format="2">
  <advance width="218"/>
  <unicode hex="201C"/>
  <outline>
    <contour>
      <point x="32" y="560" type="line"/>
      <point x="40" y="560" type="line"/>
      <point x="40" y="608" type="line" smooth="yes"/>
      <point x="40" y="653"/>
      <point x="48" y="685"/>
      <point x="74" y="722" type="curve"/>
      <point x="68" y="726" type="line"/>
      <point x="36" y="684"/>
      <point x="32" y="648"/>
      <point x="32" y="608" type="curve" smooth="yes"/>
    </contour>
    <contour>
      <point x="112" y="560" type="line"/>
      <point x="120" y="560" type="line"/>
      <point x="120" y="608" type="line" smooth="yes"/>
      <point x="120" y="653"/>
      <point x="128" y="685"/>
      <point x="154" y="722" type="curve"/>
      <point x="148" y="726" type="line"/>
      <point x="116" y="684"/>
      <point x="112" y="648"/>
      <point x="112" y="608" type="curve" smooth="yes"/>
    </contour>
  </outline>
</glyph>
<glyph name="quotedblright" format="2">
  <advance width="210"/>
  <unicode hex="201D"/>
  <outline>
    <contour>
      <point x="38" y="558" type="line"/>
      <point x="70" y="600"/>
      <point x="74" y="636"/>
      <point x="74" y="676" type="curve" smooth="yes"/>
      <point x="74" y="724" type="line"/>
      <point x="66" y="724" type="line"/>
      <point x="66" y="676" type="line" smooth="yes"/>
      <point x="66" y="631"/>
      <point x="58" y="599"/>
      <point x="32" y="562" type="curve"/>
    </contour>
    <contour>
      <point x="110" y="558" type="line"/>
      <point x="142" y="600"/>
      <point x="146" y="636"/>
      <point x="146" y="676" type="curve" smooth="yes"/>
      <point x="146" y="724" type="line"/>
      <point x="138" y="724" type="line"/>
      <point x="138" y="676" type="line" smooth="yes"/>
      <point x="138" y="631"/>
      <point x="130" y="599"/>
      <point x="104" y="562" type="curve"/>
    </contour>
  </outline>
</glyph>
<glyph name="quotedblbase" format="2">
  <advance width="218"/>
  <unicode hex="201E"/>
  <outline>
    <contour>
      <point x="74" y="61" type="line"/>
      <point x="66" y="61" type="line"/>
      <point x="66" y="5" type="line" smooth="yes"/>
      <point x="66" y="-40"/>
      <point x="58" y="-72"/>
      <point x="32" y="-109" type="curve"/>
      <point x="38" y="-113" type="line"/>
      <point x="70" y="-71"/>
      <point x="74" y="-35"/>
      <point x="74" y="5" type="curve" smooth="yes"/>
    </contour>
    <contour>
      <point x="154" y="61" type="line"/>
      <point x="146" y="61" type="line"/>
      <point x="146" y="5" type="line" smooth="yes"/>
      <point x="146" y="-40"/>
      <point x="138" y="-72"/>
      <point x="112" y="-109" type="curve"/>
      <point x="118" y="-113" type="line"/>
      <point x="150" y="-71"/>
      <point x="154" y="-35"/>
      <point x="154" y="5" type="curve" smooth="yes"/>
    </contour>
  </outline>
</glyph>
<glyph name="Omega" format="2">
  <advance width="694"/>
  <unicode hex="A7B6"/>
  <unicode hex="2126"/>
  <outline>
    <contour>
      <point x="72" y="0" type="line"/>
      <point x="311" y="0" type="line"/>
      <point x="311" y="91" type="line"/>
      <point x="160" y="118"/>
      <point x="60" y="223"/>
      <point x="60" y="371" type="curve" smooth="yes"/>
      <point x="60" y="541"/>
      <point x="191" y="659"/>
      <point x="347" y="659" type="curve" smooth="yes"/>
      <point x="503" y="659"/>
      <point x="634" y="541"/>
      <point x="634" y="371" type="curve" smooth="yes"/>
      <point x="634" y="221"/>
      <point x="531" y="118"/>
      <point x="380" y="91" type="curve"/>
      <point x="380" y="0" type="line"/>
      <point x="619" y="0" type="line"/>
      <point x="619" y="8" type="line"/>
      <point x="383" y="8" type="line"/>
      <point x="387" y="3" type="line"/>
      <point x="387" y="89" type="line"/>
      <point x="381" y="84" type="line"/>
      <point x="536" y="111"/>
      <point x="642" y="216"/>
      <point x="642" y="371" type="curve" smooth="yes"/>
      <point x="642" y="545"/>
      <point x="508" y="666"/>
      <point x="347" y="666" type="curve" smooth="yes"/>
      <point x="186" y="666"/>
      <point x="52" y="545"/>
      <point x="52" y="371" type="curve" smooth="yes"/>
      <point x="52" y="218"/>
      <point x="155" y="111"/>
      <point x="310" y="84" type="curve"/>
      <point x="304" y="89" type="line"/>
      <point x="304" y="3" type="line"/>
      <point x="307" y="8" type="line"/>
      <point x="72" y="8" type="line"/>
    </contour>
  </outline>
</glyph>
<glyph name="Euro.lc" format="2">
  <advance width="498"/>
  <outline>
    <contour>
      <point x="32" y="184" type="line"/>
      <point x="316" y="184" type="line"/>
      <point x="316" y="191" type="line"/>
      <point x="32" y="191" type="line"/>
    </contour>
    <contour>
      <point x="32" y="263" type="line"/>
      <point x="316" y="263" type="line"/>
      <point x="316" y="270" type="line"/>
      <point x="32" y="270" type="line"/>
    </contour>
    <component base="c" xOffset="31" yOffset="-4"/>
  </outline>
</glyph>
<glyph name="J.base" format="2">
  <advance width="229"/>
  <anchor x="141" y="642" name="top"/>
  <outline>
    <contour>
      <point x="40" y="-16" type="line" smooth="yes"/>
      <point x="103" y="-16"/>
      <point x="145" y="28"/>
      <point x="145" y="94" type="curve" smooth="yes"/>
      <point x="145" y="658" type="line"/>
      <point x="137" y="658" type="line"/>
      <point x="137" y="94" type="line" smooth="yes"/>
      <point x="137" y="33"/>
      <point x="98" y="-9"/>
      <point x="40" y="-9" type="curve" smooth="yes"/>
      <point x="32" y="-9" type="line"/>
      <point x="32" y="-16" type="line"/>
    </contour>
  </outline>
</glyph>
<glyph name="S.sc" format="2">
  <advance width="408"/>
  <anchor x="213" y="492" name="top"/>
  <anchor x="205" y="16" name="bottom"/>
  <outline>
    <contour>
      <point x="202" y="-8" type="curve" smooth="yes"/>
      <point x="289" y="-8"/>
      <point x="348" y="44"/>
      <point x="348" y="123" type="curve" smooth="yes"/>
      <point x="348" y="192"/>
      <point x="308" y="233"/>
      <point x="205" y="267" type="curve" smooth="yes"/>
      <point x="187" y="273" type="line" smooth="yes"/>
      <point x="110" y="299"/>
      <point x="80" y="334"/>
      <point x="80" y="393" type="curve" smooth="yes"/>
      <point x="80" y="461"/>
      <point x="133" y="509"/>
      <point x="213" y="509" type="curve" smooth="yes"/>
      <point x="257" y="509"/>
      <point x="303" y="495"/>
      <point x="343" y="469" type="curve"/>
      <point x="343" y="478" type="line"/>
      <point x="305" y="502"/>
      <point x="258" y="516"/>
      <point x="213" y="516" type="curve" smooth="yes"/>
      <point x="128" y="516"/>
      <point x="72" y="465"/>
      <point x="72" y="393" type="curve" smooth="yes"/>
      <point x="72" y="328"/>
      <point x="104" y="292"/>
      <point x="186" y="265" type="curve" smooth="yes"/>
      <point x="204" y="259" type="line" smooth="yes"/>
      <point x="302" y="226"/>
      <point x="340" y="188"/>
      <point x="340" y="123" type="curve" smooth="yes"/>
      <point x="340" y="49"/>
      <point x="285" y="-1"/>
      <point x="202" y="-1" type="curve" smooth="yes"/>
      <point x="153" y="-1"/>
      <point x="96" y="17"/>
      <point x="60" y="43" type="curve"/>
      <point x="60" y="34" type="line"/>
      <point x="96" y="9"/>
      <point x="153" y="-8"/>
    </contour>
  </outline>
</glyph>
<glyph name="braceleft.uc" format="2">
  <advance width="376"/>
  <outline>
    <contour>
      <point x="333" y="-64" type="curve" smooth="yes"/>
      <point x="364" y="-64" type="line"/>
      <point x="364" y="-57" type="line"/>
      <point x="333" y="-57" type="line" smooth="yes"/>
      <point x="238" y="-57"/>
      <point x="177" y="3"/>
      <point x="185" y="92" type="curve" smooth="yes"/>
      <point x="193" y="186" type="line" smooth="yes"/>
      <point x="199" y="262"/>
      <point x="147" y="317"/>
      <point x="64" y="331" type="curve"/>
      <point x="64" y="328" type="line"/>
      <point x="147" y="338"/>
      <point x="200" y="397"/>
      <point x="193" y="474" type="curve" smooth="yes"/>
      <point x="185" y="568" type="line" smooth="yes"/>
      <point x="177" y="657"/>
      <point x="238" y="717"/>
      <point x="332" y="717" type="curve" smooth="yes"/>
      <point x="364" y="717" type="line"/>
      <point x="364" y="724" type="line"/>
      <point x="332" y="724" type="line" smooth="yes"/>
      <point x="233" y="724"/>
      <point x="169" y="662"/>
      <point x="177" y="568" type="curve" smooth="yes"/>
      <point x="185" y="474" type="line" smooth="yes"/>
      <point x="191" y="398"/>
      <point x="141" y="345"/>
      <point x="60" y="334" type="curve"/>
      <point x="60" y="325" type="line"/>
      <point x="140" y="311"/>
      <point x="191" y="258"/>
      <point x="185" y="186" type="curve" smooth="yes"/>
      <point x="177" y="92" type="line" smooth="yes"/>
      <point x="169" y="-1"/>
      <point x="233" y="-64"/>
    </contour>
  </outline>
</glyph>
<glyph name="braceright.uc" format="2">
  <advance width="376"/>
  <outline>
    <contour>
      <point x="12" y="-64" type="line"/>
      <point x="44" y="-64" type="line" smooth="yes"/>
      <point x="143" y="-64"/>
      <point x="207" y="-2"/>
      <point x="199" y="92" type="curve" smooth="yes"/>
      <point x="191" y="186" type="line" smooth="yes"/>
      <point x="185" y="262"/>
      <point x="235" y="315"/>
      <point x="316" y="326" type="curve"/>
      <point x="316" y="335" type="line"/>
      <point x="236" y="349"/>
      <point x="185" y="402"/>
      <point x="191" y="474" type="curve" smooth="yes"/>
      <point x="199" y="568" type="line" smooth="yes"/>
      <point x="207" y="661"/>
      <point x="143" y="724"/>
      <point x="43" y="724" type="curve" smooth="yes"/>
      <point x="12" y="724" type="line"/>
      <point x="12" y="717" type="line"/>
      <point x="43" y="717" type="line" smooth="yes"/>
      <point x="138" y="717"/>
      <point x="199" y="657"/>
      <point x="191" y="568" type="curve" smooth="yes"/>
      <point x="183" y="474" type="line" smooth="yes"/>
      <point x="177" y="398"/>
      <point x="229" y="343"/>
      <point x="312" y="329" type="curve"/>
      <point x="312" y="332" type="line"/>
      <point x="229" y="322"/>
      <point x="176" y="263"/>
      <point x="183" y="186" type="curve" smooth="yes"/>
      <point x="191" y="92" type="line" smooth="yes"/>
      <point x="199" y="3"/>
      <point x="138" y="-57"/>
      <point x="44" y="-57" type="curve" smooth="yes"/>
      <point x="12" y="-57" type="line"/>
    </contour>
  </outline>
</glyph>
<glyph name="f.salt_connect" format="2">
  <advance width="237"/>
  <outline>
    <contour>
      <point x="110" y="0" type="line"/>
      <point x="118" y="0" type="line"/>
      <point x="118" y="455" type="line"/>
      <point x="208" y="455" type="line"/>
      <point x="208" y="462" type="line"/>
      <point x="118" y="462" type="line"/>
      <point x="118" y="596" type="line" smooth="yes"/>
      <point x="118" y="679"/>
      <point x="164" y="729"/>
      <point x="234" y="729" type="curve" smooth="yes"/>
      <point x="263" y="729"/>
      <point x="286" y="725"/>
      <point x="317" y="716" type="curve"/>
      <point x="317" y="724" type="line"/>
      <point x="288" y="733"/>
      <point x="265" y="736"/>
      <point x="234" y="736" type="curve" smooth="yes"/>
      <point x="159" y="736"/>
      <point x="110" y="684"/>
      <point x="110" y="596" type="curve" smooth="yes"/>
      <point x="110" y="462" type="line"/>
      <point x="22" y="462" type="line"/>
      <point x="22" y="455" type="line"/>
      <point x="110" y="455" type="line"/>
    </contour>
  </outline>
</glyph>
<glyph name="f.salt_noconnect" format="2">
  <advance width="235"/>
  <outline>
    <contour>
      <point x="110" y="0" type="line"/>
      <point x="118" y="0" type="line"/>
      <point x="118" y="455" type="line"/>
      <point x="216" y="455" type="line"/>
      <point x="216" y="462" type="line"/>
      <point x="118" y="462" type="line"/>
      <point x="118" y="658" type="line" smooth="yes"/>
      <point x="118" y="698"/>
      <point x="143" y="725"/>
      <point x="180" y="725" type="curve" smooth="yes"/>
      <point x="192" y="725"/>
      <point x="206" y="722"/>
      <point x="219" y="716" type="curve"/>
      <point x="219" y="724" type="line"/>
      <point x="207" y="729"/>
      <point x="194" y="732"/>
      <point x="180" y="732" type="curve" smooth="yes"/>
      <point x="138" y="732"/>
      <point x="110" y="702"/>
      <point x="110" y="658" type="curve" smooth="yes"/>
      <point x="110" y="462" type="line"/>
      <point x="22" y="462" type="line"/>
      <point x="22" y="455" type="line"/>
      <point x="110" y="455" type="line"/>
    </contour>
  </outline>
</glyph>
<glyph name="five.dnom" format="2">
  <advance width="296"/>
  <outline>
    <contour>
      <point x="144" y="-8" type="curve" smooth="yes"/>
      <point x="209" y="-8"/>
      <point x="256" y="37"/>
      <point x="256" y="105" type="curve" smooth="yes"/>
      <point x="256" y="169"/>
      <point x="210" y="211"/>
      <point x="140" y="211" type="curve" smooth="yes"/>
      <point x="115" y="211"/>
      <point x="85" y="207"/>
      <point x="58" y="199" type="curve"/>
      <point x="61" y="194" type="line"/>
      <point x="73" y="352" type="line"/>
      <point x="241" y="352" type="line"/>
      <point x="241" y="360" type="line"/>
      <point x="67" y="360" type="line"/>
      <point x="54" y="190" type="line"/>
      <point x="79" y="198"/>
      <point x="110" y="204"/>
      <point x="140" y="204" type="curve" smooth="yes"/>
      <point x="205" y="204"/>
      <point x="248" y="164"/>
      <point x="248" y="105" type="curve" smooth="yes"/>
      <point x="248" y="41"/>
      <point x="204" y="-1"/>
      <point x="144" y="-1" type="curve" smooth="yes"/>
      <point x="102" y="-1"/>
      <point x="65" y="15"/>
      <point x="40" y="40" type="curve"/>
      <point x="40" y="30" type="line"/>
      <point x="67" y="5"/>
      <point x="106" y="-8"/>
    </contour>
  </outline>
</glyph>
<glyph name="five.lc" format="2">
  <advance width="493"/>
  <outline>
    <contour>
      <point x="236" y="-196" type="curve" smooth="yes"/>
      <point x="357" y="-196"/>
      <point x="437" y="-118"/>
      <point x="437" y="-1" type="curve" smooth="yes"/>
      <point x="437" y="114"/>
      <point x="350" y="191"/>
      <point x="219" y="191" type="curve" smooth="yes"/>
      <point x="173" y="191"/>
      <point x="137" y="187"/>
      <point x="97" y="181" type="curve"/>
      <point x="101" y="179" type="line"/>
      <point x="125" y="462" type="line"/>
      <point x="421" y="462" type="line"/>
      <point x="421" y="470" type="line"/>
      <point x="118" y="470" type="line"/>
      <point x="93" y="173" type="line"/>
      <point x="138" y="180"/>
      <point x="173" y="184"/>
      <point x="219" y="184" type="curve" smooth="yes"/>
      <point x="345" y="184"/>
      <point x="429" y="110"/>
      <point x="429" y="-1" type="curve" smooth="yes"/>
      <point x="429" y="-114"/>
      <point x="352" y="-189"/>
      <point x="236" y="-189" type="curve" smooth="yes"/>
      <point x="165" y="-189"/>
      <point x="100" y="-157"/>
      <point x="56" y="-110" type="curve"/>
      <point x="56" y="-121" type="line"/>
      <point x="100" y="-165"/>
      <point x="163" y="-196"/>
    </contour>
  </outline>
</glyph>
<glyph name="g.salt" format="2">
  <advance width="422"/>
  <anchor x="210" y="446" name="top"/>
  <outline>
    <contour>
      <point x="219" y="-232" type="curve" smooth="yes"/>
      <point x="324" y="-232"/>
      <point x="396" y="-176"/>
      <point x="396" y="-96" type="curve" smooth="yes"/>
      <point x="396" y="-33"/>
      <point x="339" y="17"/>
      <point x="256" y="26" type="curve" smooth="yes"/>
      <point x="155" y="37" type="line" smooth="yes"/>
      <point x="107" y="42"/>
      <point x="83" y="64"/>
      <point x="83" y="100" type="curve" smooth="yes"/>
      <point x="83" y="140"/>
      <point x="123" y="168"/>
      <point x="182" y="168" type="curve"/>
      <point x="182" y="175" type="line"/>
      <point x="118" y="175"/>
      <point x="75" y="144"/>
      <point x="75" y="100" type="curve" smooth="yes"/>
      <point x="75" y="60"/>
      <point x="102" y="35"/>
      <point x="154" y="29" type="curve" smooth="yes"/>
      <point x="255" y="18" type="line" smooth="yes"/>
      <point x="334" y="9"/>
      <point x="388" y="-37"/>
      <point x="388" y="-96" type="curve" smooth="yes"/>
      <point x="388" y="-172"/>
      <point x="319" y="-225"/>
      <point x="219" y="-225" type="curve" smooth="yes"/>
      <point x="117" y="-225"/>
      <point x="48" y="-173"/>
      <point x="48" y="-98" type="curve" smooth="yes"/>
      <point x="48" y="-31"/>
      <point x="109" y="20"/>
      <point x="201" y="25" type="curve"/>
      <point x="201" y="32" type="line"/>
      <point x="106" y="28"/>
      <point x="40" y="-25"/>
      <point x="40" y="-98" type="curve" smooth="yes"/>
      <point x="40" y="-177"/>
      <point x="112" y="-232"/>
    </contour>
    <contour>
      <point x="214" y="173" type="curve" smooth="yes"/>
      <point x="132" y="173"/>
      <point x="71" y="232"/>
      <point x="71" y="318" type="curve" smooth="yes"/>
      <point x="71" y="404"/>
      <point x="132" y="463"/>
      <point x="214" y="463" type="curve" smooth="yes"/>
      <point x="296" y="463"/>
      <point x="357" y="404"/>
      <point x="357" y="318" type="curve" smooth="yes"/>
      <point x="357" y="232"/>
      <point x="296" y="173"/>
    </contour>
    <contour>
      <point x="398" y="504" type="line"/>
      <point x="353" y="504"/>
      <point x="313" y="489"/>
      <point x="274" y="459" type="curve"/>
      <point x="256" y="466"/>
      <point x="236" y="470"/>
      <point x="214" y="470" type="curve" smooth="yes"/>
      <point x="127" y="470"/>
      <point x="63" y="408"/>
      <point x="63" y="318" type="curve" smooth="yes"/>
      <point x="63" y="227"/>
      <point x="127" y="165"/>
      <point x="214" y="165" type="curve" smooth="yes"/>
      <point x="301" y="165"/>
      <point x="365" y="227"/>
      <point x="365" y="318" type="curve" smooth="yes"/>
      <point x="365" y="382"/>
      <point x="330" y="432"/>
      <point x="281" y="455" type="curve"/>
      <point x="316" y="482"/>
      <point x="356" y="496"/>
      <point x="398" y="496" type="curve"/>
    </contour>
  </outline>
</glyph>
<glyph name="one.dnom" format="2">
  <advance width="279"/>
  <outline>
    <contour>
      <point x="33" y="0" type="line"/>
      <point x="247" y="0" type="line"/>
      <point x="247" y="7" type="line"/>
      <point x="144" y="7" type="line"/>
      <point x="144" y="372" type="line"/>
      <point x="32" y="344" type="line"/>
      <point x="32" y="337" type="line"/>
      <point x="136" y="363" type="line"/>
      <point x="136" y="7" type="line"/>
      <point x="33" y="7" type="line"/>
    </contour>
  </outline>
</glyph>
<glyph name="one.lc" format="2">
  <advance width="389"/>
  <outline>
    <contour>
      <point x="69" y="0" type="line"/>
      <point x="333" y="0" type="line"/>
      <point x="333" y="7" type="line"/>
      <point x="205" y="7" type="line"/>
      <point x="205" y="481" type="line"/>
      <point x="56" y="441" type="line"/>
      <point x="57" y="434" type="line"/>
      <point x="197" y="471" type="line"/>
      <point x="197" y="7" type="line"/>
      <point x="69" y="7" type="line"/>
    </contour>
  </outline>
</glyph>
<glyph name="parenleft.uc" format="2">
  <advance width="268"/>
  <outline>
    <contour>
      <point x="219" y="-64" type="curve"/>
      <point x="228" y="-64" type="line"/>
      <point x="136" y="44"/>
      <point x="88" y="178"/>
      <point x="88" y="330" type="curve" smooth="yes"/>
      <point x="88" y="484"/>
      <point x="136" y="618"/>
      <point x="228" y="724" type="curve"/>
      <point x="219" y="724" type="line"/>
      <point x="127" y="618"/>
      <point x="80" y="484"/>
      <point x="80" y="330" type="curve" smooth="yes"/>
      <point x="80" y="179"/>
      <point x="127" y="45"/>
    </contour>
  </outline>
</glyph>
<glyph name="parenright.uc" format="2">
  <advance width="268"/>
  <outline>
    <contour>
      <point x="49" y="-64" type="line"/>
      <point x="141" y="42"/>
      <point x="188" y="176"/>
      <point x="188" y="330" type="curve" smooth="yes"/>
      <point x="188" y="481"/>
      <point x="141" y="615"/>
      <point x="49" y="724" type="curve"/>
      <point x="40" y="724" type="line"/>
      <point x="132" y="616"/>
      <point x="180" y="482"/>
      <point x="180" y="330" type="curve" smooth="yes"/>
      <point x="180" y="176"/>
      <point x="132" y="42"/>
      <point x="40" y="-64" type="curve"/>
    </contour>
  </outline>
</glyph>
<glyph name="seven.lc" format="2">
  <advance width="476"/>
  <outline>
    <contour>
      <point x="172" y="-188" type="line" smooth="yes"/>
      <point x="180" y="-188" type="line" smooth="yes"/>
      <point x="432" y="462" type="line" smooth="yes"/>
      <point x="432" y="470" type="line" smooth="yes"/>
      <point x="52" y="470" type="line" smooth="yes"/>
      <point x="52" y="462" type="line" smooth="yes"/>
      <point x="427" y="462" type="line" smooth="yes"/>
      <point x="426" y="467" type="line" smooth="yes"/>
    </contour>
  </outline>
</glyph>
<glyph name="three.dnom" format="2">
  <advance width="291"/>
  <outline>
    <contour>
      <point x="144" y="-8" type="curve" smooth="yes"/>
      <point x="210" y="-8"/>
      <point x="251" y="34"/>
      <point x="251" y="90" type="curve" smooth="yes"/>
      <point x="251" y="155"/>
      <point x="201" y="189"/>
      <point x="126" y="189" type="curve"/>
      <point x="125" y="184" type="line"/>
      <point x="196" y="184"/>
      <point x="244" y="222"/>
      <point x="244" y="278" type="curve" smooth="yes"/>
      <point x="244" y="332"/>
      <point x="206" y="368"/>
      <point x="148" y="368" type="curve" smooth="yes"/>
      <point x="117" y="368"/>
      <point x="79" y="355"/>
      <point x="54" y="336" type="curve"/>
      <point x="54" y="327" type="line"/>
      <point x="79" y="347"/>
      <point x="117" y="361"/>
      <point x="148" y="361" type="curve" smooth="yes"/>
      <point x="201" y="361"/>
      <point x="236" y="328"/>
      <point x="236" y="278" type="curve" smooth="yes"/>
      <point x="236" y="225"/>
      <point x="192" y="190"/>
      <point x="125" y="190" type="curve" smooth="yes"/>
      <point x="111" y="190" type="line"/>
      <point x="111" y="183" type="line"/>
      <point x="126" y="183" type="line" smooth="yes"/>
      <point x="203" y="183"/>
      <point x="243" y="146"/>
      <point x="243" y="90" type="curve" smooth="yes"/>
      <point x="243" y="38"/>
      <point x="205" y="-1"/>
      <point x="144" y="-1" type="curve" smooth="yes"/>
      <point x="105" y="-1"/>
      <point x="67" y="16"/>
      <point x="40" y="41" type="curve"/>
      <point x="40" y="32" type="line"/>
      <point x="68" y="6"/>
      <point x="107" y="-8"/>
    </contour>
  </outline>
</glyph>
<glyph name="three.lc" format="2">
  <advance width="491"/>
  <outline>
    <contour>
      <point x="246" y="-198" type="curve" smooth="yes"/>
      <point x="359" y="-198"/>
      <point x="435" y="-129"/>
      <point x="435" y="-25" type="curve" smooth="yes"/>
      <point x="435" y="81"/>
      <point x="349" y="152"/>
      <point x="219" y="152" type="curve"/>
      <point x="219" y="147" type="line"/>
      <point x="345" y="147"/>
      <point x="429" y="215"/>
      <point x="429" y="316" type="curve" smooth="yes"/>
      <point x="429" y="412"/>
      <point x="361" y="476"/>
      <point x="259" y="476" type="curve" smooth="yes"/>
      <point x="197" y="476"/>
      <point x="132" y="452"/>
      <point x="90" y="418" type="curve"/>
      <point x="90" y="409" type="line"/>
      <point x="135" y="446"/>
      <point x="199" y="469"/>
      <point x="259" y="469" type="curve" smooth="yes"/>
      <point x="356" y="469"/>
      <point x="421" y="408"/>
      <point x="421" y="316" type="curve" smooth="yes"/>
      <point x="421" y="218"/>
      <point x="340" y="153"/>
      <point x="219" y="153" type="curve" smooth="yes"/>
      <point x="193" y="153" type="line"/>
      <point x="193" y="146" type="line"/>
      <point x="219" y="146" type="line" smooth="yes"/>
      <point x="344" y="146"/>
      <point x="427" y="77"/>
      <point x="427" y="-25" type="curve" smooth="yes"/>
      <point x="427" y="-125"/>
      <point x="355" y="-191"/>
      <point x="246" y="-191" type="curve" smooth="yes"/>
      <point x="181" y="-191"/>
      <point x="106" y="-164"/>
      <point x="56" y="-121" type="curve"/>
      <point x="56" y="-130" type="line"/>
      <point x="104" y="-171"/>
      <point x="179" y="-198"/>
    </contour>
  </outline>
</glyph>
<glyph name="two.dnom" format="2">
  <advance width="318"/>
  <outline>
    <contour>
      <point x="40" y="0" type="line"/>
      <point x="278" y="0" type="line"/>
      <point x="278" y="8" type="line"/>
      <point x="48" y="8" type="line"/>
      <point x="49" y="3" type="line"/>
      <point x="192" y="94"/>
      <point x="265" y="181"/>
      <point x="265" y="257" type="curve" smooth="yes"/>
      <point x="265" y="325"/>
      <point x="223" y="368"/>
      <point x="154" y="368" type="curve" smooth="yes"/>
      <point x="120" y="368"/>
      <point x="80" y="356"/>
      <point x="54" y="338" type="curve"/>
      <point x="54" y="329" type="line"/>
      <point x="80" y="348"/>
      <point x="120" y="361"/>
      <point x="154" y="361" type="curve" smooth="yes"/>
      <point x="218" y="361"/>
      <point x="257" y="321"/>
      <point x="257" y="257" type="curve" smooth="yes"/>
      <point x="257" y="185"/>
      <point x="191" y="101"/>
      <point x="40" y="6" type="curve"/>
    </contour>
  </outline>
</glyph>
<glyph name="two.lc" format="2">
  <advance width="415"/>
  <outline>
    <contour>
      <point x="60" y="0" type="line"/>
      <point x="355" y="0" type="line"/>
      <point x="355" y="8" type="line"/>
      <point x="68" y="8" type="line"/>
      <point x="68" y="6" type="line"/>
      <point x="286" y="171"/>
      <point x="348" y="244"/>
      <point x="348" y="338" type="curve" smooth="yes"/>
      <point x="348" y="421"/>
      <point x="289" y="476"/>
      <point x="202" y="476" type="curve" smooth="yes"/>
      <point x="157" y="476"/>
      <point x="109" y="458"/>
      <point x="66" y="428" type="curve"/>
      <point x="66" y="419" type="line"/>
      <point x="112" y="451"/>
      <point x="160" y="469"/>
      <point x="202" y="469" type="curve" smooth="yes"/>
      <point x="284" y="469"/>
      <point x="340" y="416"/>
      <point x="340" y="338" type="curve" smooth="yes"/>
      <point x="340" y="246"/>
      <point x="278" y="173"/>
      <point x="60" y="9" type="curve"/>
    </contour>
  </outline>
</glyph>
<glyph name="zero.dnom" format="2">
  <advance width="384"/>
  <outline>
    <contour>
      <point x="192" y="-8" type="curve" smooth="yes"/>
      <point x="281" y="-8"/>
      <point x="332" y="67"/>
      <point x="332" y="180" type="curve" smooth="yes"/>
      <point x="332" y="293"/>
      <point x="281" y="368"/>
      <point x="192" y="368" type="curve" smooth="yes"/>
      <point x="103" y="368"/>
      <point x="52" y="293"/>
      <point x="52" y="180" type="curve" smooth="yes"/>
      <point x="52" y="67"/>
      <point x="103" y="-8"/>
    </contour>
    <contour>
      <point x="192" y="-1" type="curve" smooth="yes"/>
      <point x="107" y="-1"/>
      <point x="60" y="71"/>
      <point x="60" y="180" type="curve" smooth="yes"/>
      <point x="60" y="289"/>
      <point x="107" y="361"/>
      <point x="192" y="361" type="curve" smooth="yes"/>
      <point x="277" y="361"/>
      <point x="324" y="289"/>
      <point x="324" y="180" type="curve" smooth="yes"/>
      <point x="324" y="71"/>
      <point x="277" y="-1"/>
    </contour>
  </outline>
</glyph>
<glyph name="zero.lc" format="2">
  <advance width="550"/>
  <outline>
    <contour>
      <point x="271" y="-9" type="curve" smooth="yes"/>
      <point x="395" y="-9"/>
      <point x="494" y="93"/>
      <point x="494" y="235" type="curve" smooth="yes"/>
      <point x="494" y="377"/>
      <point x="395" y="479"/>
      <point x="271" y="479" type="curve" smooth="yes"/>
      <point x="147" y="479"/>
      <point x="56" y="377"/>
      <point x="56" y="235" type="curve" smooth="yes"/>
      <point x="56" y="93"/>
      <point x="147" y="-9"/>
    </contour>
    <contour>
      <point x="271" y="-1" type="curve" smooth="yes"/>
      <point x="152" y="-1"/>
      <point x="64" y="97"/>
      <point x="64" y="235" type="curve" smooth="yes"/>
      <point x="64" y="373"/>
      <point x="152" y="471"/>
      <point x="271" y="471" type="curve" smooth="yes"/>
      <point x="390" y="471"/>
      <point x="486" y="373"/>
      <point x="486" y="235" type="curve" smooth="yes"/>
      <point x="486" y="97"/>
      <point x="390" y="-1"/>
    </contour>
  </outline>
</glyph>
<glyph name="zero.lc_salt_slash" format="2">
  <advance width="550"/>
  <outline>
    <contour>
      <point x="271" y="-9" type="curve" smooth="yes"/>
      <point x="395" y="-9"/>
      <point x="494" y="93"/>
      <point x="494" y="235" type="curve" smooth="yes"/>
      <point x="494" y="377"/>
      <point x="395" y="479"/>
      <point x="271" y="479" type="curve" smooth="yes"/>
      <point x="147" y="479"/>
      <point x="56" y="377"/>
      <point x="56" y="235" type="curve" smooth="yes"/>
      <point x="56" y="93"/>
      <point x="147" y="-9"/>
    </contour>
    <contour>
      <point x="64" y="235" type="curve" smooth="yes"/>
      <point x="64" y="373"/>
      <point x="152" y="471"/>
      <point x="271" y="471" type="curve" smooth="yes"/>
      <point x="311" y="471"/>
      <point x="348" y="460"/>
      <point x="380" y="440" type="curve"/>
      <point x="151" y="39" type="line"/>
      <point x="97" y="80"/>
      <point x="64" y="150"/>
    </contour>
    <contour>
      <point x="271" y="-1" type="curve" smooth="yes"/>
      <point x="228" y="-1"/>
      <point x="189" y="12"/>
      <point x="156" y="35" type="curve"/>
      <point x="386" y="436" type="line"/>
      <point x="446" y="396"/>
      <point x="486" y="324"/>
      <point x="486" y="235" type="curve" smooth="yes"/>
      <point x="486" y="97"/>
      <point x="390" y="-1"/>
    </contour>
  </outline>
</glyph>
<glyph name="zero.salt_slash" format="2">
  <advance width="542"/>
  <outline>
    <contour>
      <point x="271" y="-8" type="curve" smooth="yes"/>
      <point x="414" y="-8"/>
      <point x="488" y="126"/>
      <point x="488" y="327" type="curve" smooth="yes"/>
      <point x="488" y="530"/>
      <point x="414" y="666"/>
      <point x="271" y="666" type="curve" smooth="yes"/>
      <point x="128" y="666"/>
      <point x="54" y="530"/>
      <point x="54" y="327" type="curve" smooth="yes"/>
      <point x="54" y="126"/>
      <point x="128" y="-8"/>
    </contour>
    <contour>
      <point x="62" y="327" type="curve" smooth="yes"/>
      <point x="62" y="546"/>
      <point x="146" y="659"/>
      <point x="271" y="659" type="curve" smooth="yes"/>
      <point x="315" y="659"/>
      <point x="354" y="645"/>
      <point x="386" y="617" type="curve"/>
      <point x="147" y="49" type="line"/>
      <point x="94" y="101"/>
      <point x="62" y="195"/>
    </contour>
    <contour>
      <point x="271" y="-1" type="curve" smooth="yes"/>
      <point x="225" y="-1"/>
      <point x="185" y="14"/>
      <point x="152" y="44" type="curve"/>
      <point x="392" y="612" type="line"/>
      <point x="447" y="560"/>
      <point x="480" y="464"/>
      <point x="480" y="327" type="curve" smooth="yes"/>
      <point x="480" y="111"/>
      <point x="396" y="-1"/>
    </contour>
  </outline>
</glyph>
<glyph name="zero.sc_salt_slash" format="2">
  <advance width="496"/>
  <outline>
    <contour>
      <point x="248" y="-8" type="curve" smooth="yes"/>
      <point x="363" y="-8"/>
      <point x="440" y="97"/>
      <point x="440" y="254" type="curve" smooth="yes"/>
      <point x="440" y="411"/>
      <point x="363" y="516"/>
      <point x="248" y="516" type="curve" smooth="yes"/>
      <point x="133" y="516"/>
      <point x="56" y="411"/>
      <point x="56" y="254" type="curve" smooth="yes"/>
      <point x="56" y="97"/>
      <point x="133" y="-8"/>
    </contour>
    <contour>
      <point x="64" y="254" type="curve" smooth="yes"/>
      <point x="64" y="407"/>
      <point x="138" y="509"/>
      <point x="248" y="509" type="curve" smooth="yes"/>
      <point x="278" y="509"/>
      <point x="305" y="501"/>
      <point x="329" y="487" type="curve"/>
      <point x="141" y="40" type="line"/>
      <point x="93" y="83"/>
      <point x="64" y="159"/>
    </contour>
    <contour>
      <point x="248" y="-1" type="curve" smooth="yes"/>
      <point x="209" y="-1"/>
      <point x="175" y="12"/>
      <point x="147" y="35" type="curve"/>
      <point x="336" y="483" type="line"/>
      <point x="395" y="444"/>
      <point x="432" y="362"/>
      <point x="432" y="254" type="curve" smooth="yes"/>
      <point x="432" y="101"/>
      <point x="358" y="-1"/>
    </contour>
  </outline>
</glyph>
<glyph name="zero.tab_lc_salt_slash" format="2">
  <advance width="650"/>
  <outline>
    <contour>
      <point x="321" y="-9" type="curve" smooth="yes"/>
      <point x="445" y="-9"/>
      <point x="544" y="93"/>
      <point x="544" y="235" type="curve" smooth="yes"/>
      <point x="544" y="377"/>
      <point x="445" y="479"/>
      <point x="321" y="479" type="curve" smooth="yes"/>
      <point x="197" y="479"/>
      <point x="106" y="377"/>
      <point x="106" y="235" type="curve" smooth="yes"/>
      <point x="106" y="93"/>
      <point x="197" y="-9"/>
    </contour>
    <contour>
      <point x="114" y="235" type="curve" smooth="yes"/>
      <point x="114" y="373"/>
      <point x="202" y="471"/>
      <point x="321" y="471" type="curve" smooth="yes"/>
      <point x="363" y="471"/>
      <point x="403" y="459"/>
      <point x="436" y="436" type="curve"/>
      <point x="206" y="35" type="line"/>
      <point x="150" y="75"/>
      <point x="114" y="147"/>
    </contour>
    <contour>
      <point x="321" y="-1" type="curve" smooth="yes"/>
      <point x="280" y="-1"/>
      <point x="243" y="11"/>
      <point x="212" y="31" type="curve"/>
      <point x="442" y="432" type="line"/>
      <point x="499" y="391"/>
      <point x="536" y="321"/>
      <point x="536" y="235" type="curve" smooth="yes"/>
      <point x="536" y="97"/>
      <point x="440" y="-1"/>
    </contour>
  </outline>
</glyph>
<glyph name="zero.tab_salt_slash" format="2">
  <advance width="650"/>
  <outline>
    <contour>
      <point x="325" y="-8" type="curve" smooth="yes"/>
      <point x="468" y="-8"/>
      <point x="542" y="126"/>
      <point x="542" y="327" type="curve" smooth="yes"/>
      <point x="542" y="530"/>
      <point x="468" y="666"/>
      <point x="325" y="666" type="curve" smooth="yes"/>
      <point x="182" y="666"/>
      <point x="108" y="530"/>
      <point x="108" y="327" type="curve" smooth="yes"/>
      <point x="108" y="126"/>
      <point x="182" y="-8"/>
    </contour>
    <contour>
      <point x="116" y="327" type="curve" smooth="yes"/>
      <point x="116" y="546"/>
      <point x="200" y="659"/>
      <point x="325" y="659" type="curve" smooth="yes"/>
      <point x="370" y="659"/>
      <point x="410" y="644"/>
      <point x="443" y="615" type="curve"/>
      <point x="204" y="46" type="line"/>
      <point x="149" y="98"/>
      <point x="116" y="192"/>
    </contour>
    <contour>
      <point x="325" y="-1" type="curve" smooth="yes"/>
      <point x="281" y="-1"/>
      <point x="241" y="13"/>
      <point x="209" y="41" type="curve"/>
      <point x="448" y="610" type="line"/>
      <point x="502" y="557"/>
      <point x="534" y="462"/>
      <point x="534" y="327" type="curve" smooth="yes"/>
      <point x="534" y="111"/>
      <point x="450" y="-1"/>
    </contour>
  </outline>
</glyph>
